<?xml version="1.0" standalone="no"?>
<!DOCTYPE svg PUBLIC "-//W3C//DTD SVG 20010904//EN"
 "http://www.w3.org/TR/2001/REC-SVG-20010904/DTD/svg10.dtd">
<svg version="1.0" xmlns="http://www.w3.org/2000/svg"
 width="1787.000000pt" height="580.000000pt" viewBox="0 0 1787.000000 580.000000"
 preserveAspectRatio="xMidYMid meet">

<g transform="translate(0.000000,580.000000) scale(0.100000,-0.100000)"
fill="#000000" stroke="none">
<path d="M2590 4913 c0 -109 -1 -116 -16 -95 -54 77 -180 65 -227 -22 -31 -57
-32 -195 -1 -246 49 -84 151 -105 214 -45 l30 29 0 -27 c0 -22 5 -27 25 -27
l25 0 0 275 0 275 -25 0 -25 0 0 -117z m-45 -116 c61 -61 61 -193 0 -254 -80
-80 -175 -11 -175 127 0 138 95 207 175 127z"/>
<path d="M3370 4913 c0 -109 -1 -116 -16 -95 -54 77 -180 65 -227 -22 -30 -57
-32 -195 -2 -245 32 -55 69 -76 130 -76 46 0 58 4 84 29 l31 30 0 -27 c0 -22
5 -27 25 -27 l25 0 0 275 0 275 -25 0 -25 0 0 -117z m-51 -109 c68 -57 67
-212 -2 -270 -79 -66 -167 5 -167 136 0 132 88 202 169 134z"/>
<path d="M3720 4755 l0 -275 25 0 c20 0 25 5 25 27 l0 27 30 -29 c63 -60 165
-39 214 45 31 51 30 188 -1 246 -46 87 -173 99 -227 22 -15 -21 -16 -14 -16
95 l0 117 -25 0 -25 0 0 -275z m205 65 c61 -23 85 -166 43 -250 -19 -37 -30
-47 -61 -55 -72 -17 -125 35 -134 132 -7 74 9 124 48 158 33 27 62 31 104 15z"/>
<path d="M1190 4735 l0 -255 25 0 25 0 0 120 0 120 90 0 c83 0 90 1 90 20 0
19 -7 20 -90 20 l-90 0 0 95 0 95 95 0 c88 0 95 1 95 20 0 19 -7 20 -120 20
l-120 0 0 -255z"/>
<path d="M2035 4859 c-11 -6 -30 -23 -42 -38 l-23 -26 0 33 c0 25 -4 32 -20
32 -19 0 -20 -7 -20 -190 l0 -190 24 0 25 0 3 146 3 146 33 29 c38 35 88 39
123 10 23 -18 24 -25 27 -175 l3 -156 25 0 24 0 0 140 c0 149 -9 188 -49 224
-25 22 -107 32 -136 15z"/>
<path d="M2810 4851 c-99 -53 -121 -252 -36 -337 38 -38 99 -51 173 -38 40 8
49 13 51 33 3 20 1 23 -15 17 -37 -15 -118 -17 -142 -4 -32 17 -59 56 -67 96
l-6 32 132 0 133 0 -6 54 c-14 136 -111 202 -217 147z m119 -37 c25 -18 51
-71 51 -104 0 -19 -6 -20 -105 -20 -116 0 -117 1 -91 64 28 66 95 94 145 60z"/>
<path d="M1520 4720 c0 -185 20 -233 103 -247 51 -8 86 3 119 39 l28 30 0 -31
c0 -24 4 -31 20 -31 19 0 20 7 20 190 l0 190 -24 0 -25 0 -3 -146 -3 -146 -33
-29 c-20 -18 -43 -29 -61 -29 -78 0 -91 29 -91 210 l0 140 -25 0 -25 0 0 -140z"/>
<path d="M4090 4853 c0 -3 29 -89 65 -189 64 -182 64 -183 50 -225 -20 -56
-32 -69 -65 -69 -26 0 -46 -21 -33 -34 10 -10 63 -7 84 4 28 15 43 51 129 294
74 208 77 221 58 224 -27 5 -27 5 -83 -159 -27 -77 -52 -136 -55 -132 -4 5
-29 72 -55 151 -44 128 -51 142 -72 142 -13 0 -23 -3 -23 -7z"/>
<path d="M9620 3430 l0 -340 28 0 29 0 1 151 c1 137 3 156 24 198 28 56 77 80
136 65 62 -15 72 -48 72 -246 l0 -168 30 0 30 0 0 144 c0 227 -19 287 -96 315
-58 20 -123 8 -162 -31 l-32 -30 -1 123 c-2 161 0 152 -31 156 l-28 4 0 -341z"/>
<path d="M5346 3739 c-428 -41 -732 -267 -828 -614 -31 -116 -32 -362 0 -487
78 -312 295 -526 624 -613 133 -35 230 -44 423 -40 218 6 375 27 558 76 l37
10 0 394 0 395 -260 0 -260 0 0 -230 0 -230 -27 -7 c-16 -5 -71 -8 -123 -8
-83 1 -103 4 -158 29 -103 47 -165 133 -198 274 -23 96 -15 276 15 354 45 116
144 215 259 259 161 61 430 54 589 -16 31 -14 57 -25 59 -25 2 0 4 96 4 213
l0 214 -112 21 c-111 22 -350 43 -458 41 -30 -1 -95 -6 -144 -10z"/>
<path d="M1132 3532 l3 -187 425 -2 c286 -1 439 -6 467 -14 95 -26 161 -123
184 -269 17 -112 6 -379 -19 -452 -30 -91 -63 -132 -129 -164 -52 -26 -69 -29
-190 -32 l-133 -4 0 301 0 301 -305 0 -305 0 0 -501 0 -501 543 5 c579 4 605
6 746 59 244 92 392 295 432 594 15 112 6 413 -15 504 -78 344 -270 506 -636
539 -58 5 -322 10 -588 10 l-482 0 2 -187z"/>
<path d="M3003 3713 c-10 -4 -13 -184 -13 -854 l0 -849 306 2 305 3 0 308 -1
307 385 0 385 0 0 190 0 190 -379 0 -379 0 -5 22 c-3 12 -5 86 -4 166 l2 144
360 -1 c198 0 370 2 383 5 22 6 22 8 22 184 0 151 -2 179 -15 184 -19 7 -1335
6 -1352 -1z"/>
<path d="M7030 3405 l0 -318 113 5 c128 6 187 24 248 77 51 43 77 94 88 176
23 164 -34 294 -151 345 -42 18 -77 24 -175 28 l-123 5 0 -318z m251 240 c91
-32 139 -112 139 -230 0 -114 -43 -200 -120 -240 -30 -16 -120 -33 -152 -30
-13 1 -31 3 -40 4 -17 1 -18 20 -18 256 l0 255 74 0 c41 0 93 -7 117 -15z"/>
<path d="M8633 3667 c-20 -9 -23 -18 -23 -64 l0 -53 -45 0 c-41 0 -45 -2 -45
-25 0 -23 4 -25 44 -25 l45 0 3 -186 3 -186 28 -24 c20 -17 40 -24 70 -24 51
0 70 11 65 36 -3 15 -11 18 -39 16 -64 -6 -69 7 -69 189 0 87 -1 162 -2 167
-2 4 21 8 50 10 48 3 52 5 52 28 0 22 -3 24 -52 24 l-53 0 3 49 c5 63 -5 82
-35 68z"/>
<path d="M7700 3538 c-35 -19 -51 -37 -74 -82 -26 -50 -30 -68 -30 -139 1
-122 31 -183 109 -218 73 -34 215 -17 221 25 5 32 -4 35 -52 19 -60 -20 -127
-13 -161 18 -34 32 -53 71 -53 109 l0 30 151 0 152 0 -7 61 c-13 125 -65 189
-160 197 -40 3 -61 -2 -96 -20z m147 -49 c20 -18 39 -58 47 -101 l7 -38 -121
0 -120 0 0 26 c0 39 39 101 74 119 34 17 88 14 113 -6z"/>
<path d="M8905 3541 c-44 -19 -65 -53 -65 -102 0 -52 28 -84 114 -131 86 -47
105 -72 92 -121 -12 -49 -92 -71 -165 -46 -36 13 -36 13 -45 -17 -5 -18 -1
-24 25 -33 44 -15 133 -14 173 3 50 21 76 60 76 117 0 59 -30 99 -104 136 -85
43 -106 61 -106 93 0 46 43 73 105 67 28 -3 57 -8 66 -12 12 -4 18 1 21 19 5
23 1 27 -31 36 -54 15 -111 12 -156 -9z"/>
<path d="M9325 3545 c-49 -17 -107 -80 -123 -133 -16 -54 -15 -141 2 -190 34
-97 99 -142 204 -142 82 0 111 12 105 42 -4 23 -7 24 -52 15 -98 -21 -175 24
-201 117 -42 151 56 277 194 249 28 -6 52 -10 53 -9 0 0 3 12 5 25 2 19 -3 26
-22 32 -42 12 -123 9 -165 -6z"/>
<path d="M10205 3546 c-77 -35 -118 -114 -118 -228 0 -114 35 -186 107 -219
47 -21 130 -25 187 -7 33 9 39 15 39 40 0 33 4 32 -50 13 -112 -39 -203 9
-217 115 l-6 40 153 0 153 0 -5 64 c-6 72 -37 137 -80 169 -34 26 -122 33
-163 13z m140 -66 c20 -19 45 -86 45 -119 0 -7 -42 -11 -120 -11 l-120 0 0 25
c0 45 46 111 90 128 27 11 82 -2 105 -23z"/>
<path d="M8079 3543 c0 -5 0 -86 0 -181 1 -126 5 -182 15 -207 39 -92 189
-103 255 -19 l21 27 0 -37 c0 -32 3 -36 25 -36 l25 0 0 230 0 230 -27 0 -28 0
0 -158 c-1 -171 -8 -199 -61 -241 -32 -25 -90 -28 -123 -5 -42 30 -51 71 -51
244 l0 160 -25 0 c-14 0 -25 -3 -26 -7z"/>
<path d="M15950 2687 c-39 -19 -60 -72 -60 -149 l0 -68 -45 0 c-41 0 -45 -2
-45 -25 0 -23 4 -25 45 -25 l45 0 0 -205 0 -205 25 0 25 0 0 205 0 205 50 0
c47 0 50 2 50 25 0 23 -3 25 -51 25 l-52 0 6 72 c7 84 28 111 81 106 23 -2 31
1 34 16 2 10 -2 22 -10 27 -19 13 -69 11 -98 -4z"/>
<path d="M8970 2350 l0 -340 30 0 30 0 0 153 c0 127 4 159 19 193 24 52 55 74
104 74 94 0 107 -31 107 -250 l0 -170 31 0 31 0 -4 183 c-3 163 -6 186 -25
223 -26 48 -57 64 -124 64 -56 0 -100 -19 -123 -52 -15 -21 -16 -12 -16 120
l0 142 -30 0 -30 0 0 -340z"/>
<path d="M14900 2350 l0 -340 30 0 30 0 0 153 c0 166 13 217 61 251 36 25 102
21 136 -8 l28 -24 3 -186 3 -186 30 0 29 0 0 168 c0 252 -25 302 -150 302 -57
0 -96 -18 -125 -56 -13 -17 -14 -3 -15 124 l0 142 -30 0 -30 0 0 -340z"/>
<path d="M13460 2630 c0 -36 3 -40 25 -40 23 0 25 4 25 40 0 36 -2 40 -25 40
-22 0 -25 -4 -25 -40z"/>
<path d="M7030 2325 l0 -315 30 0 30 0 0 150 0 150 111 0 110 0 -3 26 -3 27
-108 -1 -108 -1 3 112 3 112 110 1 110 1 3 27 3 26 -145 0 -146 0 0 -315z"/>
<path d="M16203 2590 c-20 -8 -23 -17 -23 -65 l0 -55 -40 0 c-36 0 -40 -2 -40
-25 0 -22 4 -25 40 -25 l40 0 1 -147 c0 -141 2 -170 14 -220 14 -59 155 -74
155 -16 0 22 -3 23 -34 18 -27 -6 -39 -2 -55 14 -20 20 -21 32 -21 186 l0 165
50 0 c47 0 50 2 50 25 0 23 -3 25 -50 25 l-50 0 0 65 c0 68 -1 69 -37 55z"/>
<path d="M7503 2461 c-52 -24 -99 -101 -109 -177 -13 -107 35 -221 108 -261
45 -24 151 -24 196 0 143 77 145 363 2 435 -56 28 -138 29 -197 3z m168 -48
c94 -56 96 -279 3 -340 -35 -22 -114 -22 -149 1 -57 37 -86 169 -56 258 7 20
28 51 47 68 28 24 44 30 80 30 26 0 59 -8 75 -17z"/>
<path d="M8042 2473 c-7 -3 -24 -21 -37 -41 l-25 -37 0 38 c0 34 -2 37 -28 37
l-27 0 0 -227 0 -228 26 -3 27 -3 4 158 c3 124 7 165 21 190 22 42 54 63 94
63 30 0 33 3 33 30 0 28 -2 30 -37 29 -21 0 -44 -3 -51 -6z"/>
<path d="M8253 2466 c-36 -16 -63 -61 -63 -103 0 -47 33 -86 101 -122 87 -46
109 -67 109 -107 0 -75 -88 -102 -192 -59 -15 6 -18 2 -18 -24 0 -37 24 -46
115 -45 103 0 156 44 157 129 1 63 -22 91 -117 143 -43 23 -82 48 -87 55 -14
22 -9 56 12 77 22 22 98 28 143 11 20 -8 26 -6 30 9 9 34 -9 44 -85 47 -48 2
-84 -2 -105 -11z"/>
<path d="M8664 2465 c-153 -78 -168 -336 -26 -432 39 -26 119 -37 182 -25 40
7 45 11 42 32 -1 13 -4 25 -5 26 -1 2 -23 -2 -49 -7 -125 -27 -221 74 -204
214 11 96 72 157 157 157 26 0 59 -4 73 -10 23 -8 26 -7 32 16 4 14 3 28 -1
32 -3 4 -43 8 -88 10 -60 2 -91 -2 -113 -13z"/>
<path d="M10079 2464 c-14 -9 -33 -29 -42 -43 l-16 -26 -1 38 c0 34 -2 37 -27
37 l-28 0 3 -230 3 -230 23 0 c32 0 37 23 35 184 -1 151 11 195 62 221 37 19
99 19 126 0 34 -24 43 -76 43 -248 l0 -158 28 3 27 3 2 150 c2 174 -8 235 -47
278 -25 28 -34 32 -96 34 -52 3 -76 -1 -95 -13z"/>
<path d="M10529 2457 c-19 -12 -45 -43 -59 -67 -21 -39 -25 -58 -25 -135 0
-78 4 -98 26 -140 30 -59 72 -90 133 -99 54 -8 103 10 134 49 l22 28 0 -54 c0
-134 -103 -201 -235 -154 -22 8 -41 15 -42 15 -2 0 -3 -13 -3 -29 0 -26 5 -30
44 -40 128 -32 219 0 269 94 21 37 22 56 25 293 l3 252 -30 0 c-25 0 -31 -4
-31 -21 0 -20 -1 -20 -31 5 -26 22 -40 26 -98 26 -54 0 -75 -5 -102 -23z m164
-38 c41 -18 60 -66 65 -154 4 -101 -21 -159 -81 -189 -101 -49 -190 56 -172
203 8 66 25 102 61 130 29 23 88 28 127 10z"/>
<path d="M10992 2465 c-34 -15 -62 -64 -62 -107 0 -43 35 -83 107 -121 100
-52 120 -81 98 -134 -22 -52 -101 -64 -187 -28 -15 6 -18 2 -18 -24 0 -37 23
-46 115 -46 75 0 123 26 149 78 34 71 1 140 -91 186 -113 57 -137 95 -90 139
25 24 94 30 140 13 21 -8 26 -6 31 12 3 12 1 26 -5 32 -16 16 -150 17 -187 0z"/>
<path d="M11400 2473 c-8 -3 -30 -19 -48 -36 -56 -53 -78 -176 -51 -284 33
-128 190 -184 277 -97 l32 32 0 -47 c0 -132 -106 -202 -235 -156 -45 16 -44
16 -50 -17 -4 -22 0 -26 46 -36 115 -27 211 -2 256 66 35 53 43 120 43 352 l0
220 -30 0 c-24 0 -30 -4 -30 -22 0 -21 0 -21 -26 3 -21 20 -37 24 -97 26 -40
1 -79 0 -87 -4z m160 -71 c64 -64 67 -234 4 -303 -9 -10 -35 -24 -56 -30 -50
-13 -104 11 -131 58 -43 75 -30 219 25 273 25 25 37 30 80 30 41 0 54 -5 78
-28z"/>
<path d="M11884 2461 c-72 -44 -110 -138 -102 -252 12 -157 114 -232 272 -199
53 11 56 13 56 42 0 25 -3 29 -17 23 -91 -34 -164 -25 -207 26 -25 29 -52 106
-42 116 3 3 67 5 144 5 76 0 143 3 150 7 17 10 -4 137 -30 179 -11 19 -35 43
-52 53 -42 26 -130 26 -172 0z m145 -47 c26 -19 51 -71 51 -109 0 -25 -1 -25
-92 -27 -98 -1 -140 1 -147 8 -10 10 34 96 60 119 36 30 92 33 128 9z"/>
<path d="M12363 2461 c-17 -11 -36 -28 -42 -38 -9 -15 -10 -13 -11 15 0 29 -3
32 -30 32 l-30 0 0 -230 0 -230 30 0 30 0 0 148 c0 81 5 164 10 184 24 86 132
120 184 57 26 -30 26 -32 26 -210 l0 -179 24 0 c32 0 36 18 36 183 0 150 7
178 56 216 56 44 153 12 155 -51 0 -13 1 -95 2 -183 l2 -160 28 -3 27 -3 0
181 c0 192 -6 226 -49 264 -34 31 -130 34 -175 6 -20 -12 -43 -31 -51 -42 -14
-21 -14 -21 -26 6 -7 15 -25 34 -40 42 -40 20 -118 18 -156 -5z"/>
<path d="M13082 2463 c-66 -32 -104 -115 -104 -225 0 -64 4 -88 26 -132 31
-63 58 -83 130 -98 41 -9 65 -8 111 3 54 13 60 17 63 42 4 31 3 32 -63 11 -54
-16 -104 -12 -141 13 -26 17 -64 89 -64 121 0 21 3 22 133 24 72 0 140 0 151
-1 17 -1 18 4 13 64 -6 84 -40 151 -87 176 -43 23 -123 24 -168 2z m153 -57
c21 -21 45 -81 45 -113 0 -10 -31 -13 -120 -13 -136 0 -140 3 -100 80 36 70
127 94 175 46z"/>
<path d="M13775 2469 c-11 -6 -30 -23 -42 -38 l-23 -26 0 33 c0 29 -3 32 -31
32 l-32 0 7 -61 c3 -34 6 -138 6 -230 l0 -169 24 0 24 0 4 158 c3 129 7 164
22 195 22 45 60 67 116 67 81 0 100 -49 100 -267 l0 -153 25 0 25 0 0 180 c0
204 -8 237 -62 270 -37 22 -128 27 -163 9z"/>
<path d="M14181 2463 c-35 -17 -61 -63 -61 -105 0 -42 35 -83 101 -117 84 -44
109 -68 109 -103 0 -44 -16 -66 -58 -78 -35 -11 -86 -5 -134 15 -15 6 -18 2
-18 -23 0 -34 9 -39 85 -48 93 -11 167 28 185 97 21 77 -8 121 -115 179 -76
40 -95 58 -95 85 0 39 35 65 90 65 27 0 60 -4 73 -9 21 -8 26 -6 31 12 8 33
-8 41 -87 45 -53 2 -81 -2 -106 -15z"/>
<path d="M14600 2464 c-104 -45 -154 -176 -117 -305 34 -113 118 -168 239
-155 33 3 64 8 69 12 9 5 13 54 4 54 -2 0 -26 -5 -54 -11 -69 -15 -121 1 -160
48 -78 94 -56 259 41 309 32 16 122 16 161 -1 14 -6 17 -2 17 23 0 22 -6 31
-22 36 -42 11 -143 5 -178 -10z"/>
<path d="M15453 2468 c-27 -9 -33 -16 -33 -39 0 -34 -2 -33 43 -14 20 8 58 15
85 15 59 0 91 -28 99 -88 6 -45 9 -44 -114 -56 -107 -10 -163 -60 -163 -146 0
-49 26 -102 59 -119 45 -24 107 -25 156 -1 26 12 49 29 52 36 9 23 19 16 19
-13 -1 -23 4 -29 27 -31 l29 -4 -4 189 c-3 206 -10 232 -68 267 -32 18 -135
20 -187 4z m197 -270 c0 -60 -27 -109 -73 -132 -70 -34 -147 1 -147 67 0 68
54 105 158 106 l62 1 0 -42z"/>
<path d="M9470 2298 c0 -148 3 -179 19 -215 22 -47 50 -69 103 -78 53 -10 95
3 137 40 l37 34 0 -32 c-1 -28 3 -32 27 -35 l27 -3 0 230 0 231 -30 0 -30 0 0
-142 c0 -79 -5 -159 -10 -179 -14 -48 -56 -87 -106 -95 -36 -5 -45 -3 -73 22
-40 38 -52 99 -50 264 l1 125 -26 3 -26 3 0 -173z"/>
<path d="M13460 2240 l0 -230 25 0 25 0 0 230 0 230 -25 0 -25 0 0 -230z"/>
<path d="M11600 1050 c0 -243 1 -250 20 -250 19 0 20 7 20 98 0 116 12 164 47
192 29 23 81 26 107 7 23 -17 35 -83 35 -204 1 -76 4 -93 16 -93 22 0 22 258
0 300 -29 57 -124 64 -177 13 l-28 -27 0 107 c0 100 -1 107 -20 107 -19 0 -20
-7 -20 -250z"/>
<path d="M13770 1193 c0 -104 -1 -107 -18 -86 -53 68 -167 51 -205 -30 -19
-40 -23 -150 -6 -194 35 -92 144 -122 205 -56 l24 26 0 -27 c0 -19 5 -26 20
-26 19 0 20 7 20 250 0 243 -1 250 -20 250 -19 0 -20 -7 -20 -107z m-40 -111
c53 -54 49 -188 -8 -232 -27 -22 -72 -26 -103 -10 -67 36 -68 220 -2 259 35
20 83 13 113 -17z"/>
<path d="M14460 1250 c0 -23 4 -30 20 -30 16 0 20 7 20 30 0 23 -4 30 -20 30
-16 0 -20 -7 -20 -30z"/>
<path d="M7176 1258 c-51 -14 -118 -81 -134 -134 -17 -57 -15 -157 4 -202 24
-58 72 -101 133 -119 57 -16 132 -14 184 6 l27 11 0 115 0 115 -70 0 c-63 0
-70 -2 -70 -20 0 -18 7 -20 55 -20 l55 0 0 -80 c0 -94 -6 -100 -96 -100 -72 0
-136 29 -164 75 -44 71 -43 185 3 252 41 62 144 90 234 64 26 -8 32 -6 36 9 3
11 -2 21 -12 25 -31 12 -146 14 -185 3z"/>
<path d="M9490 1030 c0 -223 1 -230 20 -230 19 0 20 7 20 110 l0 110 42 0 c23
0 49 -7 58 -15 9 -8 34 -57 56 -110 33 -80 43 -95 62 -95 12 0 22 2 22 6 0 19
-85 202 -99 215 -18 14 -17 16 10 28 53 24 74 94 44 151 -23 45 -62 60 -155
60 l-80 0 0 -230z m167 179 c32 -12 43 -26 43 -56 0 -62 -42 -93 -126 -93
l-44 0 0 80 0 80 49 0 c27 0 62 -5 78 -11z"/>
<path d="M12150 1030 c0 -223 1 -230 20 -230 19 0 20 7 20 110 l0 110 85 0
c78 0 85 2 85 20 0 18 -7 20 -85 20 l-85 0 0 80 0 80 90 0 c83 0 90 1 90 20 0
19 -7 20 -110 20 l-110 0 0 -230z"/>
<path d="M14277 1223 c-4 -3 -7 -24 -7 -45 0 -37 -1 -38 -35 -38 -28 0 -35 -4
-35 -20 0 -16 7 -20 35 -20 l35 0 0 -130 c0 -126 1 -132 25 -155 25 -25 68
-33 94 -16 20 13 4 31 -29 31 -42 0 -50 23 -50 154 l0 116 40 0 c33 0 40 3 40
20 0 17 -7 20 -40 20 l-40 0 0 45 c0 43 -14 58 -33 38z"/>
<path d="M7564 1136 c-95 -42 -113 -248 -28 -315 54 -42 194 -34 194 10 0 16
-4 19 -17 14 -10 -4 -41 -10 -69 -12 -46 -5 -55 -2 -83 23 -17 16 -34 44 -37
62 l-6 32 117 0 118 0 -6 55 c-12 117 -89 172 -183 131z m115 -50 c12 -13 24
-40 28 -60 l6 -36 -97 0 c-106 0 -110 3 -81 60 32 62 103 80 144 36z"/>
<path d="M7920 1137 c-9 -7 -24 -23 -33 -37 l-17 -24 0 32 c0 25 -4 32 -20 32
-19 0 -20 -7 -20 -170 0 -163 1 -170 20 -170 19 0 20 7 20 98 0 151 26 212 90
212 23 0 30 4 30 20 0 15 -7 20 -27 20 -16 0 -35 -6 -43 -13z"/>
<path d="M8145 1138 c-11 -6 -28 -20 -37 -32 l-18 -21 0 28 c0 20 -5 27 -20
27 -19 0 -20 -7 -20 -170 0 -163 1 -170 20 -170 19 0 20 7 20 103 0 56 5 118
10 138 19 68 100 93 139 43 19 -24 21 -40 21 -155 0 -103 3 -129 14 -129 10 0
14 27 18 120 3 101 7 124 25 147 38 53 115 56 133 7 6 -14 10 -81 10 -150 0
-119 1 -124 21 -124 20 0 20 4 17 144 -3 137 -4 146 -27 170 -27 28 -77 42
-112 31 -13 -4 -36 -21 -51 -37 -19 -20 -28 -25 -28 -15 0 42 -88 71 -135 45z"/>
<path d="M8650 1137 c-20 -7 -36 -20 -38 -31 -3 -15 0 -17 14 -11 11 4 42 10
70 12 43 4 55 2 73 -16 11 -11 21 -34 21 -49 0 -27 -2 -28 -77 -39 -67 -10
-81 -16 -105 -42 -48 -54 -33 -131 29 -157 48 -21 98 -12 135 22 l28 28 0 -27
c0 -17 5 -27 15 -27 22 0 22 258 0 299 -24 47 -93 62 -165 38z m140 -208 c0
-31 -6 -47 -29 -70 -52 -51 -141 -32 -141 30 0 14 4 31 8 38 15 23 68 43 115
43 l47 0 0 -41z"/>
<path d="M9021 1136 c-13 -7 -30 -24 -37 -37 -13 -24 -13 -24 -14 9 0 25 -4
32 -20 32 -19 0 -20 -7 -20 -170 0 -163 1 -170 20 -170 19 0 20 7 20 99 0 54
3 112 6 130 15 75 105 108 153 57 21 -22 24 -37 29 -155 4 -101 8 -131 18
-131 21 0 20 260 -1 299 -23 46 -103 65 -154 37z"/>
<path d="M9914 1136 c-72 -32 -107 -167 -66 -258 11 -26 32 -54 46 -63 58 -38
186 -26 186 17 0 15 -4 18 -17 13 -10 -4 -41 -10 -69 -12 -46 -5 -55 -2 -83
23 -17 16 -34 44 -37 62 l-6 32 117 0 118 0 -6 55 c-12 117 -89 172 -183 131z
m123 -65 c13 -19 23 -45 23 -57 0 -24 -2 -24 -95 -24 -105 0 -109 3 -80 60 36
69 113 80 152 21z"/>
<path d="M10220 1143 c-32 -12 -60 -47 -60 -75 0 -45 16 -66 73 -94 70 -35 87
-52 87 -85 0 -49 -68 -75 -133 -50 -20 8 -27 6 -31 -5 -9 -25 0 -32 54 -39 92
-13 150 24 150 95 0 42 -30 75 -100 110 -51 26 -60 36 -60 67 0 30 28 43 94
43 41 0 56 4 56 14 0 21 -89 34 -130 19z"/>
<path d="M10500 1132 c-46 -23 -71 -70 -77 -146 -12 -142 75 -221 205 -187 32
9 42 17 42 32 0 16 -4 19 -17 14 -10 -4 -41 -10 -69 -12 -46 -5 -55 -2 -83 23
-17 16 -34 44 -37 62 l-6 32 117 0 118 0 -6 55 c-12 119 -93 175 -187 127z
m119 -46 c12 -13 24 -40 28 -60 l6 -36 -97 0 c-106 0 -110 3 -81 60 32 62 103
80 144 36z"/>
<path d="M10820 1137 c-20 -7 -36 -20 -38 -31 -3 -15 0 -17 14 -11 11 4 42 10
70 12 43 4 55 2 73 -16 11 -11 21 -34 21 -49 0 -27 -2 -28 -77 -39 -67 -10
-81 -16 -105 -42 -46 -51 -34 -127 23 -157 44 -22 103 -13 140 22 l29 28 0
-27 c0 -17 5 -27 15 -27 22 0 22 258 0 299 -24 47 -93 62 -165 38z m140 -208
c0 -31 -6 -47 -29 -70 -52 -51 -141 -32 -141 30 0 14 4 31 8 37 15 23 69 43
115 44 l47 0 0 -41z"/>
<path d="M11194 1139 c-11 -6 -28 -22 -37 -37 l-16 -27 -1 33 c0 25 -4 32 -20
32 -19 0 -20 -7 -20 -170 0 -163 1 -170 20 -170 19 0 20 7 20 98 0 151 26 212
90 212 23 0 30 4 30 20 0 22 -30 26 -66 9z"/>
<path d="M11390 1143 c-120 -45 -148 -240 -46 -321 50 -39 176 -41 176 -3 0
15 -8 17 -60 13 -57 -4 -61 -3 -94 30 -61 61 -61 155 0 216 34 34 37 35 94 29
53 -4 60 -3 60 13 0 26 -83 40 -130 23z"/>
<path d="M12523 1143 c-33 -6 -81 -58 -93 -101 -23 -83 -5 -163 47 -214 31
-30 40 -33 93 -33 101 0 155 61 155 175 0 130 -78 197 -202 173z m106 -48 c31
-16 61 -77 61 -125 0 -48 -30 -109 -61 -125 -36 -19 -89 -19 -115 0 -69 48
-71 201 -3 249 29 20 81 21 118 1z"/>
<path d="M13271 1136 c-13 -7 -30 -24 -37 -37 -13 -24 -13 -24 -14 9 0 25 -4
32 -20 32 -19 0 -20 -7 -20 -170 0 -163 1 -170 20 -170 19 0 20 7 20 105 0
157 29 211 110 203 59 -6 72 -37 78 -182 4 -97 8 -126 18 -126 21 0 20 260 -1
299 -23 46 -103 65 -154 37z"/>
<path d="M13953 1135 c-18 -8 -33 -21 -33 -31 0 -11 5 -14 18 -9 9 4 40 10 68
12 43 4 55 2 73 -16 12 -12 21 -34 21 -50 0 -28 -2 -29 -65 -36 -107 -11 -156
-59 -141 -139 9 -47 45 -71 107 -71 39 0 53 5 78 29 l31 30 0 -27 c0 -17 5
-27 15 -27 22 0 22 258 0 299 -24 48 -106 65 -172 36z m147 -206 c0 -55 -42
-99 -96 -99 -60 0 -88 41 -68 95 10 24 61 44 117 45 l47 0 0 -41z"/>
<path d="M14693 1143 c-34 -7 -81 -59 -93 -101 -41 -149 46 -272 177 -247 130
24 165 243 52 328 -27 19 -94 30 -136 20z m106 -48 c31 -16 61 -77 61 -125 0
-48 -30 -109 -61 -125 -36 -19 -89 -19 -115 0 -69 48 -71 201 -3 249 29 20 81
21 118 1z"/>
<path d="M15067 1137 c-16 -7 -35 -23 -42 -37 l-14 -25 -1 33 c0 25 -4 32 -20
32 -19 0 -20 -7 -20 -170 0 -163 1 -170 20 -170 19 0 20 7 20 99 0 124 6 154
38 186 20 21 34 25 65 23 66 -5 79 -33 85 -182 4 -97 8 -126 18 -126 21 0 20
260 -1 299 -23 45 -91 63 -148 38z"/>
<path d="M12810 1023 c0 -188 20 -228 115 -228 46 0 58 4 84 29 l31 30 0 -27
c0 -21 5 -27 21 -27 15 0 19 4 15 16 -3 9 -6 85 -6 170 0 130 -2 154 -15 154
-12 0 -15 -16 -16 -82 -1 -167 -28 -228 -100 -228 -73 0 -89 36 -89 196 0 107
-1 114 -20 114 -19 0 -20 -7 -20 -117z"/>
<path d="M14460 970 c0 -163 1 -170 20 -170 19 0 20 7 20 170 0 163 -1 170
-20 170 -19 0 -20 -7 -20 -170z"/>
</g>
</svg>
