<?xml version="1.0" standalone="no"?>
<!DOCTYPE svg PUBLIC "-//W3C//DTD SVG 20010904//EN"
 "http://www.w3.org/TR/2001/REC-SVG-20010904/DTD/svg10.dtd">
<svg version="1.0" xmlns="http://www.w3.org/2000/svg"
 width="2000.000000pt" height="876.000000pt" viewBox="0 0 2000.000000 876.000000"
 preserveAspectRatio="xMidYMid meet">

<g transform="translate(0.000000,876.000000) scale(0.100000,-0.100000)"
fill="#000000" stroke="none">
<path d="M0 4380 l0 -4380 4378 2 4377 3 3 872 2 873 -3505 0 -3505 0 0 2630
0 2630 3505 0 3505 0 0 875 0 875 -4380 0 -4380 0 0 -4380z"/>
<path d="M10362 8420 c-18 -4 -35 -9 -37 -12 -2 -2 0 -21 5 -43 5 -22 10 -226
10 -452 l0 -413 28 -32 c25 -27 36 -32 80 -32 28 -1 53 2 57 6 15 15 -6 66
-29 72 -13 3 -26 16 -30 28 -3 13 -6 208 -6 433 0 226 -3 420 -6 433 -7 23
-18 25 -72 12z"/>
<path d="M16842 8418 c-29 -6 -40 -13 -35 -21 5 -7 10 -214 13 -460 l5 -449
28 -23 c33 -29 83 -40 119 -26 25 9 26 13 17 38 -5 16 -19 33 -32 38 l-22 10
-5 440 c-3 242 -9 446 -13 453 -9 14 -15 14 -75 0z"/>
<path d="M10671 8384 c-28 -36 -27 -79 4 -109 49 -50 135 -15 135 55 0 72 -96
109 -139 54z"/>
<path d="M15071 8384 c-28 -36 -27 -79 4 -109 49 -50 135 -15 135 55 0 72 -96
109 -139 54z"/>
<path d="M16487 8398 c-24 -19 -38 -64 -27 -92 11 -29 47 -56 76 -56 29 0 70
34 78 65 7 29 -15 79 -39 89 -27 10 -70 7 -88 -6z"/>
<path d="M17153 8384 c-21 -21 -24 -32 -19 -62 10 -67 76 -93 130 -51 20 16
26 29 26 58 0 75 -83 109 -137 55z"/>
<path d="M9310 7937 c0 -259 -4 -456 -10 -476 -11 -39 -52 -86 -93 -107 l-27
-15 26 -34 26 -34 41 20 c55 28 94 65 120 114 22 39 22 50 25 508 l3 467 -56
0 -55 0 0 -443z"/>
<path d="M12816 8348 c-6 -37 -76 -853 -76 -880 0 -15 9 -18 49 -18 59 0 50
-47 88 454 23 320 29 373 39 340 5 -22 57 -209 115 -417 l104 -378 49 3 49 3
116 407 116 408 32 -398 c18 -218 32 -403 32 -409 1 -9 19 -13 56 -13 l56 0
-6 48 c-6 51 -75 852 -75 871 0 8 -24 11 -82 9 l-82 -3 -82 -290 c-46 -159
-93 -332 -105 -383 l-22 -93 -32 128 c-18 70 -65 242 -104 381 -39 139 -71
255 -71 257 0 3 -36 5 -80 5 l-79 0 -5 -32z"/>
<path d="M11865 8141 c-64 -16 -126 -63 -154 -119 -17 -32 -15 -125 2 -159 23
-44 67 -80 120 -97 26 -9 53 -16 61 -16 33 0 121 -34 142 -55 45 -45 24 -139
-38 -171 -46 -24 -157 -15 -231 19 l-56 26 -22 -36 c-25 -41 -25 -41 61 -74
77 -30 202 -37 270 -14 93 31 150 111 150 209 0 106 -70 161 -249 197 -86 17
-116 43 -116 102 0 106 129 147 255 82 38 -20 37 -21 59 24 l20 38 -26 12
c-72 33 -184 47 -248 32z"/>
<path d="M19002 8132 c-98 -35 -147 -106 -140 -203 8 -104 62 -149 223 -185
102 -22 135 -51 135 -117 0 -51 -24 -88 -70 -107 -46 -19 -156 -8 -224 23
l-56 26 -20 -38 -19 -39 49 -21 c73 -31 145 -44 224 -39 144 10 226 89 226
218 0 109 -59 161 -220 195 -81 17 -125 37 -134 60 -3 9 -6 34 -6 54 0 103
113 136 257 76 20 -8 37 -14 38 -13 5 6 35 67 35 72 0 12 -118 47 -178 51 -51
4 -80 1 -120 -13z"/>
<path d="M13940 8127 c-59 -14 -121 -39 -158 -63 -23 -15 -22 -24 10 -67 13
-17 17 -16 77 14 49 24 82 33 136 37 65 4 74 2 100 -21 26 -22 30 -32 33 -94
l4 -70 -98 -6 c-118 -7 -177 -26 -233 -74 -56 -47 -74 -86 -75 -158 -2 -123
74 -193 210 -194 64 -1 143 29 179 69 17 19 18 19 35 -13 9 -17 31 -40 47 -49
l30 -18 25 36 26 35 -24 24 c-27 27 -26 15 -24 290 1 121 -3 201 -10 220 -14
37 -46 72 -83 91 -39 21 -142 26 -207 11z m194 -429 c-8 -107 -12 -118 -60
-154 -37 -28 -110 -42 -159 -30 -57 14 -84 119 -49 192 27 57 87 82 196 83
l78 1 -6 -92z"/>
<path d="M15440 8125 c-31 -8 -43 -16 -40 -26 3 -8 6 -157 8 -331 l3 -318 49
0 50 0 0 249 0 249 31 27 c77 64 164 83 210 46 l24 -19 3 -276 3 -276 49 0 50
0 0 244 0 244 43 37 c57 49 94 67 140 69 31 1 44 -5 63 -27 l24 -28 0 -270 0
-269 55 0 55 0 0 263 c0 149 -5 278 -10 299 -20 70 -89 128 -153 128 -47 0
-123 -30 -174 -69 l-52 -40 -21 34 c-28 45 -99 79 -151 72 -47 -6 -114 -39
-150 -74 -30 -27 -33 -25 -43 29 -4 21 -10 39 -14 41 -4 2 -27 -1 -52 -8z"/>
<path d="M17650 8127 c-59 -14 -121 -39 -158 -63 -23 -15 -22 -24 10 -67 13
-17 17 -16 78 15 66 33 152 47 205 34 39 -10 65 -61 65 -127 l0 -56 -97 -6
c-126 -7 -184 -28 -244 -86 -74 -72 -88 -165 -36 -255 30 -53 84 -80 170 -84
57 -4 75 0 120 22 30 14 62 35 72 46 18 19 18 19 34 -12 9 -18 30 -40 47 -50
l31 -18 27 40 c14 22 22 40 16 40 -5 0 -17 12 -27 27 -16 24 -17 50 -15 243 4
229 -2 264 -46 313 -44 49 -152 67 -252 44z m192 -429 c-5 -107 -9 -117 -58
-155 -29 -21 -50 -28 -98 -31 -55 -4 -66 -1 -91 20 -23 20 -29 35 -33 80 -10
121 55 176 209 177 l76 1 -5 -92z"/>
<path d="M18206 8123 c-43 -13 -47 -16 -40 -36 4 -12 10 -160 11 -329 l4 -308
49 0 50 0 0 249 0 249 31 26 c66 56 139 80 194 65 62 -17 65 -35 65 -329 l0
-260 56 0 55 0 -3 278 c-3 270 -4 278 -27 318 -59 105 -201 117 -317 27 -25
-19 -47 -33 -48 -31 -1 2 -9 24 -17 49 l-14 47 -49 -15z"/>
<path d="M9638 8123 l-28 -4 0 -277 c0 -248 2 -281 19 -318 24 -54 60 -80 127
-94 88 -19 168 4 236 68 l27 25 10 -24 c5 -13 21 -37 36 -53 l26 -29 34 33 33
32 -21 37 c-21 34 -22 50 -25 324 l-3 288 -37 -6 c-20 -4 -43 -8 -49 -10 -10
-3 -13 -62 -13 -247 l0 -243 -30 -37 c-32 -38 -102 -78 -138 -78 -12 0 -40 7
-63 17 -66 26 -69 42 -69 343 l0 260 -22 -1 c-13 -1 -35 -4 -50 -6z"/>
<path d="M10698 8123 l-28 -4 0 -335 0 -334 55 0 55 0 0 340 0 340 -27 -1
c-16 -1 -40 -4 -55 -6z"/>
<path d="M11043 8123 l-23 -4 0 -285 c0 -266 1 -287 20 -324 27 -54 85 -83
165 -84 74 0 123 16 180 59 l43 33 12 -28 c11 -27 57 -78 62 -69 2 2 15 18 30
35 l28 30 -20 39 c-19 36 -20 59 -20 323 l0 285 -31 -7 c-17 -3 -40 -6 -50 -6
-18 0 -19 -12 -19 -245 l0 -245 -41 -45 c-74 -81 -170 -95 -231 -35 l-28 28 0
276 0 276 -27 -1 c-16 -1 -38 -4 -50 -6z"/>
<path d="M15098 8123 l-28 -4 0 -335 0 -334 55 0 55 0 0 340 0 340 -27 -1
c-16 -1 -40 -4 -55 -6z"/>
<path d="M16503 8123 l-23 -4 0 -335 0 -334 55 0 55 0 0 340 0 340 -32 -1
c-18 -1 -43 -4 -55 -6z"/>
<path d="M17183 8123 l-23 -4 0 -335 0 -334 55 0 55 0 0 340 0 340 -32 -1
c-18 -1 -43 -4 -55 -6z"/>
<path d="M14409 8103 c5 -10 50 -76 100 -148 50 -71 89 -136 86 -143 -2 -7
-56 -88 -120 -181 -63 -93 -115 -172 -115 -175 0 -3 26 -6 58 -6 l59 0 88 140
c48 76 91 137 95 135 4 -2 45 -63 90 -136 46 -72 89 -133 96 -136 6 -2 35 -3
63 -1 l52 3 -126 182 -126 182 101 151 101 151 -63 -3 -63 -3 -57 -99 c-31
-54 -61 -103 -66 -108 -5 -5 -35 37 -73 102 l-64 110 -63 0 c-57 0 -62 -2 -53
-17z"/>
<path d="M12310 7810 l0 -50 130 0 130 0 0 50 0 50 -130 0 -130 0 0 -50z"/>
<path d="M19510 7810 l0 -50 125 0 125 0 0 50 0 50 -125 0 -125 0 0 -50z"/>
<path d="M17350 6934 c-55 -24 -99 -73 -115 -128 -18 -60 -12 -105 21 -163 67
-117 246 -128 328 -20 79 103 46 251 -67 306 -51 25 -117 27 -167 5z"/>
<path d="M17880 6928 c-24 -13 -57 -40 -74 -61 -26 -32 -31 -49 -34 -105 -3
-56 0 -74 21 -112 64 -121 240 -138 330 -31 107 128 14 331 -153 331 -28 0
-63 -9 -90 -22z"/>
<path d="M13972 6521 c-168 -42 -316 -149 -381 -278 -130 -259 -43 -561 198
-682 34 -18 148 -56 254 -87 210 -60 263 -85 306 -145 58 -79 48 -200 -21
-275 -61 -66 -106 -79 -273 -78 -125 0 -149 3 -225 28 -47 16 -122 45 -166 66
l-82 38 -65 -137 c-75 -159 -81 -141 67 -201 247 -101 502 -123 732 -65 293
74 473 288 474 562 0 152 -46 269 -144 367 -94 94 -166 128 -415 197 -247 68
-291 97 -299 193 -12 150 127 245 318 218 97 -14 166 -37 265 -88 l80 -41 82
126 82 126 -22 17 c-66 51 -239 118 -370 143 -109 21 -302 19 -395 -4z"/>
<path d="M17381 6013 c-332 -1013 -421 -1287 -421 -1295 0 -4 82 -8 183 -8
l184 0 46 158 c26 86 54 181 62 210 l16 52 264 0 264 0 16 -52 c8 -29 36 -124
62 -210 l46 -158 190 0 189 0 -7 28 c-3 15 -129 416 -278 892 l-273 865 -191
3 -192 2 -160 -487z m383 -95 c34 -153 105 -428 122 -472 5 -14 -13 -16 -171
-16 -165 0 -177 1 -170 18 14 36 95 334 131 485 21 86 41 157 44 157 3 0 23
-78 44 -172z"/>
<path d="M5100 5813 c0 -551 3 -691 15 -746 37 -177 164 -299 370 -359 70 -20
102 -23 255 -23 156 0 183 3 250 23 191 60 305 158 363 310 21 56 22 66 25
765 l3 707 -181 0 -180 0 0 -622 c0 -360 -4 -648 -10 -683 -14 -83 -50 -132
-125 -170 -53 -26 -71 -30 -145 -30 -74 0 -92 4 -145 30 -78 39 -113 88 -125
175 -5 36 -10 343 -10 683 l0 617 -180 0 -180 0 0 -677z"/>
<path d="M6740 5600 l0 -890 172 0 171 0 -6 538 c-4 295 -10 578 -13 627 l-6
90 67 -164 c37 -90 143 -335 237 -545 93 -209 186 -418 206 -463 l36 -83 188
0 188 0 0 890 0 890 -170 0 -170 0 0 -237 c1 -239 14 -706 25 -870 l6 -88 -44
120 c-69 188 -111 283 -307 693 l-183 382 -198 0 -199 0 0 -890z"/>
<path d="M8380 5600 l0 -890 190 0 190 0 0 890 0 890 -190 0 -190 0 0 -890z"/>
<path d="M9302 5658 c154 -458 290 -861 301 -895 l21 -63 162 0 c145 0 163 2
169 18 4 9 136 393 295 852 159 459 295 854 304 878 l15 42 -187 0 -188 0
-161 -472 c-151 -441 -205 -607 -234 -718 l-12 -45 -10 40 c-33 141 -77 285
-303 993 l-65 202 -194 0 -194 0 281 -832z"/>
<path d="M10770 5600 l0 -890 515 0 515 0 0 155 0 155 -335 0 -335 0 0 240 0
240 250 0 250 0 0 145 0 145 -255 0 -255 0 0 205 0 205 307 2 308 3 16 100 c8
55 19 119 22 143 l7 42 -505 0 -505 0 0 -890z"/>
<path d="M12080 5600 l0 -890 170 0 170 0 0 370 0 370 21 0 c62 0 126 -77 255
-303 44 -78 118 -208 164 -289 l84 -148 208 0 c114 0 208 2 208 5 0 5 -141
245 -232 394 -104 170 -173 273 -218 323 l-40 46 43 6 c105 16 221 104 280
213 15 28 36 86 47 129 64 249 -37 501 -240 604 -108 54 -156 60 -557 60
l-363 0 0 -890z m659 584 c59 -17 114 -68 132 -123 32 -96 6 -225 -56 -280
-49 -43 -91 -52 -254 -58 l-144 -6 6 99 c4 55 7 166 7 248 l0 149 129 -7 c71
-4 152 -13 180 -22z"/>
<path d="M15110 5600 l0 -890 190 0 190 0 0 890 0 890 -190 0 -190 0 0 -890z"/>
<path d="M15720 6345 l0 -145 218 -2 217 -3 3 -742 2 -743 180 0 180 0 0 745
0 745 214 0 213 0 27 133 c14 72 26 138 26 145 0 9 -135 12 -640 12 l-640 0 0
-145z"/>
<path d="M18510 6345 l0 -145 215 0 215 0 0 -745 0 -745 185 0 185 0 0 745 0
745 212 2 212 3 28 135 c15 74 27 138 28 143 0 4 -288 7 -640 7 l-640 0 0
-145z"/>
<path d="M7775 4546 c-50 -19 -112 -87 -121 -133 -30 -161 106 -284 259 -234
44 15 100 75 117 126 48 146 -108 294 -255 241z"/>
<path d="M8336 4548 c-22 -6 -55 -27 -77 -49 -59 -59 -74 -140 -40 -214 69
-149 280 -157 350 -13 55 115 -2 244 -124 277 -46 13 -56 13 -109 -1z"/>
<path d="M17415 4036 c-292 -56 -526 -282 -605 -584 -48 -181 -52 -462 -11
-630 72 -288 273 -507 528 -573 224 -57 510 -24 741 86 l92 44 0 426 0 425
-346 0 -346 0 5 -27 c3 -16 13 -81 23 -145 l17 -118 139 0 138 0 0 -204 0
-204 -47 -19 c-37 -14 -75 -18 -163 -18 -105 0 -120 2 -175 28 -113 53 -175
140 -212 297 -26 107 -26 479 0 595 34 158 106 262 216 314 50 23 68 26 171
26 133 0 204 -20 304 -86 32 -22 61 -39 65 -39 8 0 180 202 181 213 2 15 -88
77 -168 117 -42 21 -113 48 -157 60 -103 27 -292 35 -390 16z"/>
<path d="M5100 4010 c0 -10 389 -1662 411 -1742 l10 -38 203 0 203 0 86 433
c47 237 99 510 114 605 15 94 31 172 34 172 3 0 9 -30 13 -67 13 -126 46 -299
138 -720 l92 -423 198 0 c109 0 198 3 198 7 0 4 95 401 210 883 116 482 210
882 210 888 0 9 -51 12 -184 12 -182 0 -184 0 -189 -22 -41 -168 -164 -774
-192 -943 -19 -121 -38 -236 -42 -255 l-6 -35 -9 45 c-4 25 -19 115 -33 200
-14 85 -64 347 -112 582 l-88 428 -196 0 -195 0 -89 -402 c-86 -391 -137 -662
-151 -801 -4 -37 -9 -66 -11 -63 -2 2 -11 55 -19 117 -21 169 -55 342 -148
764 l-83 380 -186 3 c-128 2 -187 -1 -187 -8z"/>
<path d="M7480 3327 c0 -765 0 -760 63 -866 64 -107 177 -186 327 -228 53 -14
100 -18 250 -18 173 1 190 3 265 28 189 63 305 172 353 332 13 42 16 163 19
748 l5 697 -186 0 -185 0 -3 -673 -3 -674 -30 -49 c-24 -37 -45 -56 -90 -79
-52 -26 -69 -30 -144 -30 -47 0 -103 6 -124 14 -50 17 -103 64 -130 115 -22
41 -22 43 -25 709 l-3 667 -179 0 -180 0 0 -693z"/>
<path d="M9160 3131 l0 -891 175 0 175 0 0 370 c0 346 1 370 18 370 28 0 76
-35 114 -81 43 -53 89 -130 244 -407 65 -116 126 -221 134 -232 15 -20 25 -20
223 -18 l207 3 -163 270 c-193 321 -235 385 -294 446 l-44 46 41 6 c114 15
241 118 298 240 41 87 54 147 53 255 0 149 -42 262 -134 360 -58 61 -106 92
-193 124 -57 21 -75 22 -456 26 l-398 3 0 -890z m586 598 c92 -13 144 -37 177
-81 67 -91 62 -244 -11 -322 -50 -53 -100 -68 -258 -74 l-144 -5 0 247 0 246
79 0 c44 0 115 -5 157 -11z"/>
<path d="M10701 3893 c-19 -71 -36 -136 -39 -146 -4 -17 13 -18 357 -15 198 2
361 2 361 1 0 -1 -22 -35 -49 -75 -27 -40 -198 -319 -380 -620 l-331 -548 0
-125 0 -125 556 2 556 3 39 119 c21 66 40 130 44 143 l6 24 -385 -3 c-254 -2
-382 0 -378 7 3 6 18 26 33 45 16 19 181 293 368 609 l341 574 0 128 0 129
-533 0 -533 0 -33 -127z"/>
<path d="M12150 3129 l0 -891 423 4 c404 4 425 6 492 27 209 68 335 244 335
469 0 142 -40 242 -129 325 -48 45 -176 116 -211 118 -8 0 9 11 38 24 110 50
176 126 212 243 64 208 -25 413 -224 514 -104 52 -154 58 -563 58 l-373 0 0
-891z m708 568 c104 -57 131 -209 56 -319 -40 -58 -79 -68 -259 -68 l-155 0 0
206 0 206 163 -4 c132 -3 168 -6 195 -21z m7 -696 c40 -16 82 -58 108 -106 32
-61 30 -173 -6 -242 -32 -62 -76 -98 -137 -112 -25 -6 -109 -11 -187 -11
l-143 0 0 238 c0 131 3 242 8 246 11 12 323 0 357 -13z"/>
<path d="M13680 3377 c0 -386 4 -676 10 -727 30 -238 198 -389 480 -431 103
-15 312 -6 394 16 144 40 283 140 341 246 55 102 55 97 55 847 l0 692 -180 0
-179 0 -3 -667 -3 -668 -25 -44 c-64 -113 -203 -155 -365 -110 -52 14 -126 90
-143 145 -9 31 -12 206 -12 693 l0 651 -185 0 -185 0 0 -643z"/>
<path d="M15370 3130 l0 -890 175 0 175 0 0 370 0 370 24 0 c23 0 68 -29 94
-60 52 -62 98 -138 326 -542 l78 -138 209 0 c115 0 209 2 209 5 0 10 -304 512
-362 599 -33 48 -75 105 -93 125 l-34 37 59 12 c146 31 277 180 316 361 51
240 -52 483 -246 581 -108 55 -155 60 -562 60 l-368 0 0 -890z m665 586 c57
-17 106 -62 129 -118 25 -58 21 -163 -8 -224 -43 -92 -96 -114 -293 -121
l-143 -6 0 209 c0 115 3 227 7 248 l6 39 126 -6 c69 -4 149 -13 176 -21z"/>
</g>
</svg>
