<?xml version="1.0" standalone="no"?>
<!DOCTYPE svg PUBLIC "-//W3C//DTD SVG 20010904//EN"
 "http://www.w3.org/TR/2001/REC-SVG-20010904/DTD/svg10.dtd">
<svg version="1.0" xmlns="http://www.w3.org/2000/svg"
 width="1787.000000pt" height="580.000000pt" viewBox="0 0 1787.000000 580.000000"
 preserveAspectRatio="xMidYMid meet">

<g transform="translate(0.000000,580.000000) scale(0.100000,-0.100000)"
fill="#000000" stroke="none">
<path d="M9610 3435 l0 -335 25 0 25 0 0 125 c0 149 13 217 49 256 48 54 137
52 171 -4 18 -29 20 -51 20 -204 l0 -173 31 0 31 0 -4 173 c-6 230 -24 274
-121 292 -52 10 -94 -3 -138 -42 l-39 -35 0 141 0 141 -25 0 -25 0 0 -335z"/>
<path d="M5235 3734 c-245 -46 -449 -155 -575 -307 -63 -77 -123 -196 -152
-302 -31 -115 -31 -343 0 -467 75 -301 251 -493 549 -598 139 -49 243 -64 453
-63 203 1 358 18 533 59 l107 26 0 394 0 394 -260 0 -260 0 0 -230 0 -229 -42
-12 c-70 -19 -203 -7 -270 25 -138 65 -208 209 -208 426 0 260 120 421 361
486 45 12 101 17 189 17 136 0 230 -16 329 -56 l61 -25 -2 212 -3 211 -110 23
c-94 20 -146 24 -365 28 -198 3 -273 0 -335 -12z"/>
<path d="M7020 3416 l0 -316 83 0 c201 1 327 75 358 214 31 139 -9 296 -92
355 -57 42 -94 51 -231 58 l-118 6 0 -317z m288 224 c28 -16 54 -42 70 -70 25
-41 27 -54 27 -151 0 -100 -2 -108 -30 -155 -40 -66 -110 -101 -217 -110 l-78
-7 0 263 0 262 93 -4 c74 -3 100 -8 135 -28z"/>
<path d="M1120 3541 l0 -180 438 -3 c488 -3 479 -2 554 -75 71 -69 98 -180 98
-402 -1 -281 -54 -405 -194 -446 -32 -10 -93 -15 -168 -15 l-118 0 0 300 0
300 -305 0 -305 0 0 -500 0 -500 463 0 c263 0 511 5 572 11 301 30 496 148
600 362 63 131 85 230 92 417 16 440 -99 713 -348 829 -161 75 -155 74 -801
78 l-578 4 0 -180z"/>
<path d="M2982 2873 l3 -848 303 -3 302 -2 0 310 0 310 385 0 385 0 0 190 0
190 -385 0 -385 0 2 168 3 167 383 3 382 2 0 180 0 180 -690 0 -690 0 2 -847z"/>
<path d="M8613 3673 c-8 -3 -13 -25 -13 -59 l0 -54 -45 0 c-41 0 -45 -2 -45
-25 0 -23 4 -25 44 -25 l44 0 4 -186 3 -186 29 -25 c25 -21 37 -24 78 -21 55
6 63 11 55 33 -4 10 -20 15 -47 15 -61 0 -70 30 -70 220 l0 150 55 0 c52 0 55
1 55 25 0 24 -3 25 -55 25 l-55 0 0 60 c0 60 -5 67 -37 53z"/>
<path d="M7716 3560 c-34 -11 -82 -54 -103 -93 -24 -47 -34 -135 -22 -202 22
-125 95 -183 218 -172 89 7 101 13 101 48 l0 28 -35 -15 c-45 -18 -118 -18
-155 1 -31 16 -63 68 -75 122 l-6 32 153 3 153 3 -3 59 c-6 142 -104 222 -226
186z m122 -65 c26 -22 52 -84 52 -124 0 -7 -44 -11 -125 -11 l-124 0 6 33 c20
107 121 161 191 102z"/>
<path d="M8914 3559 c-45 -13 -76 -51 -81 -101 -7 -57 23 -94 112 -138 74 -37
95 -60 95 -106 0 -52 -40 -77 -115 -71 -33 2 -68 8 -78 12 -16 7 -18 4 -15
-21 2 -23 9 -30 33 -35 64 -14 121 -9 165 14 52 25 70 55 70 114 0 56 -34 95
-121 139 -81 40 -104 69 -89 108 5 14 22 31 37 37 28 11 103 8 136 -6 14 -6
17 -2 17 18 0 22 -7 28 -37 36 -45 13 -86 13 -129 0z"/>
<path d="M9328 3556 c-59 -21 -85 -42 -115 -93 -25 -43 -28 -58 -28 -133 0
-68 5 -93 22 -125 50 -95 142 -133 262 -109 26 5 31 11 31 35 0 26 -2 28 -26
19 -46 -18 -118 -12 -155 13 -101 67 -105 259 -6 331 30 22 120 29 165 13 21
-8 23 -6 20 19 -2 20 -10 30 -28 35 -41 11 -102 9 -142 -5z"/>
<path d="M10203 3559 c-39 -11 -96 -76 -111 -128 -7 -21 -12 -72 -12 -113 0
-61 5 -84 28 -129 33 -66 71 -90 155 -96 85 -7 141 12 145 50 4 32 5 31 -41
12 -48 -20 -122 -19 -157 2 -35 20 -70 81 -70 122 l0 31 151 0 152 0 -6 60
c-13 149 -108 225 -234 189z m110 -50 c30 -14 54 -55 63 -107 l7 -42 -122 0
-121 0 0 25 c0 38 36 102 68 119 32 18 72 20 105 5z"/>
<path d="M8070 3380 c0 -163 2 -185 21 -221 43 -86 185 -94 247 -14 l22 28 0
-37 c0 -32 3 -36 25 -36 l25 0 0 230 0 230 -24 0 -24 0 -4 -157 c-3 -130 -7
-165 -22 -196 -29 -60 -98 -84 -160 -56 -44 21 -56 72 -56 249 l0 160 -25 0
-25 0 0 -180z"/>
<path d="M15934 2691 c-39 -24 -54 -65 -54 -147 l0 -64 -45 0 c-41 0 -45 -2
-45 -25 0 -23 4 -25 45 -25 l45 0 0 -205 0 -205 25 0 25 0 0 204 0 205 48 3
c40 3 47 6 50 26 3 20 0 22 -48 22 l-52 0 4 69 c4 86 25 115 76 109 30 -4 33
-2 30 21 -3 22 -9 26 -38 29 -21 1 -47 -5 -66 -17z"/>
<path d="M8960 2360 l0 -341 28 3 27 3 5 165 c3 104 10 173 17 187 39 67 137
87 184 37 23 -25 24 -32 29 -207 l5 -182 25 0 25 0 3 145 c3 168 -9 239 -46
281 -48 53 -157 52 -211 -2 l-30 -30 -3 138 -3 138 -27 3 -28 3 0 -341z"/>
<path d="M14895 2688 c-3 -7 -4 -159 -3 -338 l3 -325 25 0 25 0 5 160 c5 171
15 206 62 239 25 18 100 21 127 6 31 -16 36 -39 41 -225 l5 -180 28 -3 29 -4
-4 184 c-3 154 -7 189 -23 220 -25 50 -71 72 -142 66 -44 -4 -60 -11 -88 -38
l-34 -33 -3 139 c-3 136 -4 139 -26 142 -12 2 -24 -3 -27 -10z"/>
<path d="M13450 2640 c0 -36 3 -40 25 -40 23 0 25 4 25 40 0 36 -2 40 -25 40
-22 0 -25 -4 -25 -40z"/>
<path d="M7020 2334 l0 -315 28 3 27 3 3 148 3 147 109 0 110 0 0 25 0 25
-110 0 -110 0 0 115 0 115 115 0 115 0 0 25 0 25 -145 0 -145 0 0 -316z"/>
<path d="M16193 2598 c-20 -9 -23 -19 -23 -65 l0 -53 -40 0 c-36 0 -40 -2 -40
-25 0 -22 4 -25 39 -25 l38 0 5 -176 c4 -154 7 -178 25 -202 23 -30 65 -44
111 -36 25 5 32 11 32 29 0 21 -4 23 -34 18 -26 -4 -39 0 -55 16 -20 20 -21
31 -21 186 l0 165 50 0 c47 0 50 2 50 25 0 23 -3 25 -50 25 l-50 0 0 65 c0 68
-1 70 -37 53z"/>
<path d="M7505 2476 c-40 -17 -90 -75 -106 -123 -23 -66 -17 -162 15 -226 32
-66 65 -93 134 -107 98 -21 179 19 220 109 58 124 20 286 -77 338 -51 26 -137
31 -186 9z m155 -51 c97 -50 101 -270 7 -339 -36 -27 -112 -28 -150 -3 -72 47
-97 197 -47 285 14 24 36 50 50 58 34 18 104 18 140 -1z"/>
<path d="M8009 2451 l-39 -39 0 34 c0 31 -2 34 -31 34 -28 0 -31 -3 -25 -22 3
-13 6 -116 6 -230 l0 -208 25 0 25 0 0 136 c0 209 26 274 110 274 38 0 40 2
40 30 0 28 -3 30 -36 30 -29 0 -44 -8 -75 -39z"/>
<path d="M8241 2473 c-35 -17 -61 -63 -61 -105 0 -43 35 -82 104 -117 84 -44
106 -65 106 -101 0 -42 -9 -59 -41 -75 -36 -19 -75 -19 -128 0 l-41 14 0 -29
c0 -26 5 -30 38 -37 57 -12 135 -7 169 10 44 23 63 58 63 116 0 44 -4 55 -33
82 -18 17 -64 47 -102 67 -66 35 -70 39 -73 74 -5 55 27 72 118 66 67 -5 70
-4 70 17 0 17 -7 24 -31 29 -55 11 -123 6 -158 -11z"/>
<path d="M8660 2474 c-105 -45 -154 -176 -116 -308 37 -126 151 -179 297 -140
11 3 15 12 11 30 -3 18 -9 23 -21 19 -63 -24 -126 -16 -172 22 -88 75 -91 233
-5 313 21 19 40 25 90 28 36 2 72 -1 85 -7 19 -11 21 -9 21 17 0 22 -6 31 -22
36 -41 11 -132 5 -168 -10z"/>
<path d="M10084 2480 c-11 -4 -33 -22 -47 -40 l-27 -32 0 36 c0 32 -3 36 -25
36 l-25 0 0 -230 0 -230 25 0 25 0 0 138 c0 217 29 282 127 282 99 0 113 -31
113 -255 l0 -165 25 0 25 0 0 180 c0 204 -8 237 -62 270 -35 21 -114 26 -154
10z"/>
<path d="M10530 2472 c-45 -22 -76 -70 -90 -138 -22 -105 11 -232 72 -277 30
-23 101 -38 141 -30 16 3 44 20 63 38 l34 32 0 -51 c-1 -71 -29 -128 -73 -149
-43 -21 -111 -22 -166 -2 l-41 14 0 -29 c0 -26 4 -29 50 -39 145 -31 240 14
274 129 13 42 16 102 16 282 l0 228 -30 0 c-23 0 -30 -4 -30 -20 0 -18 -2 -18
-36 5 -45 31 -131 34 -184 7z m162 -43 c51 -27 78 -193 44 -272 -32 -75 -112
-107 -173 -68 -51 32 -68 74 -68 166 0 86 17 134 59 167 24 20 106 24 138 7z"/>
<path d="M10993 2476 c-59 -27 -85 -93 -58 -149 12 -27 34 -44 96 -78 87 -46
114 -80 103 -125 -8 -30 -58 -64 -95 -64 -14 0 -47 6 -72 14 l-47 14 0 -29 c0
-24 5 -29 38 -36 141 -29 235 20 235 123 0 61 -23 89 -118 141 -44 24 -83 50
-87 56 -14 22 -8 57 13 78 19 19 30 21 95 17 75 -5 92 3 74 33 -13 19 -136 23
-177 5z"/>
<path d="M11390 2479 c-71 -29 -104 -95 -105 -214 0 -77 4 -97 25 -139 30 -59
63 -86 120 -96 57 -10 107 5 143 44 l30 31 -5 -66 c-6 -78 -29 -123 -74 -144
-40 -19 -109 -19 -163 0 l-41 14 0 -29 c0 -27 4 -29 56 -40 113 -24 208 8 245
80 31 59 39 133 39 351 l0 209 -30 0 c-23 0 -30 -4 -30 -20 0 -18 -2 -18 -36
5 -29 20 -49 25 -93 24 -31 0 -67 -5 -81 -10z m143 -50 c39 -18 60 -65 65
-149 7 -130 -42 -205 -134 -205 -73 0 -123 72 -124 175 0 122 44 190 124 190
25 0 56 -5 69 -11z"/>
<path d="M11885 2476 c-86 -38 -133 -170 -106 -297 25 -114 86 -163 201 -162
85 1 120 15 120 48 0 14 -1 25 -2 25 -2 0 -25 -7 -52 -15 -63 -19 -90 -19
-132 1 -41 19 -71 65 -80 122 l-7 42 152 0 151 0 0 53 c0 72 -41 153 -90 179
-41 21 -112 23 -155 4z m142 -58 c31 -35 43 -63 43 -102 l0 -36 -121 0 -122 0
6 36 c7 42 43 99 72 113 38 19 100 13 122 -11z"/>
<path d="M12357 2472 c-15 -10 -34 -27 -42 -38 -14 -18 -14 -17 -15 14 0 29
-3 32 -30 32 l-30 0 2 -227 3 -228 28 -3 27 -3 0 156 c0 171 8 206 55 243 17
14 42 22 66 22 91 0 99 -20 99 -245 l0 -175 24 0 24 0 4 163 c3 138 6 168 22
193 30 48 57 64 107 64 36 0 50 -5 70 -26 23 -25 24 -31 27 -210 l4 -184 24 0
24 0 0 180 c0 204 -8 237 -62 270 -65 39 -172 17 -209 -44 l-18 -30 -10 26
c-24 64 -130 92 -194 50z"/>
<path d="M13075 2473 c-69 -37 -105 -114 -105 -224 0 -178 103 -264 270 -226
50 11 55 15 58 41 3 24 1 28 -13 22 -48 -18 -108 -28 -139 -22 -66 13 -116 75
-116 146 l0 30 151 0 152 0 -6 58 c-11 99 -46 157 -110 181 -41 16 -107 13
-142 -6z m137 -44 c24 -13 57 -83 58 -121 l0 -28 -120 0 -120 0 0 26 c0 36 28
91 58 114 27 22 91 27 124 9z"/>
<path d="M13739 2451 l-39 -39 0 34 c0 30 -3 34 -27 34 l-28 0 3 -230 3 -230
24 0 25 0 0 143 c0 161 10 208 50 249 23 23 37 28 77 28 98 0 113 -34 113
-262 l0 -158 25 0 25 0 0 178 c0 152 -3 183 -19 219 -24 52 -63 73 -137 73
-52 0 -59 -3 -95 -39z"/>
<path d="M14175 2472 c-39 -24 -51 -40 -59 -78 -14 -62 17 -102 119 -153 100
-51 122 -119 51 -162 -37 -23 -67 -24 -129 -5 l-47 14 0 -29 c0 -24 5 -29 38
-36 98 -20 184 0 218 52 22 34 20 112 -4 144 -10 14 -54 45 -97 67 -85 46 -95
56 -95 96 0 45 37 62 120 56 67 -5 70 -4 70 17 0 17 -7 24 -31 29 -59 11 -123
6 -154 -12z"/>
<path d="M14581 2469 c-116 -59 -154 -227 -80 -357 38 -67 89 -95 174 -96 33
0 73 3 88 7 23 6 27 11 21 30 -3 12 -7 23 -8 24 0 1 -22 -4 -48 -9 -123 -29
-221 75 -204 215 11 99 71 157 163 157 30 0 63 -4 73 -10 15 -8 20 -6 25 11
11 33 -10 43 -88 47 -59 2 -80 -1 -116 -19z"/>
<path d="M15450 2477 c-27 -9 -36 -18 -38 -39 l-3 -28 35 15 c36 15 121 20
151 9 22 -9 45 -57 45 -97 l0 -34 -83 -5 c-92 -6 -132 -22 -171 -68 -47 -56
-29 -163 32 -193 70 -36 138 -28 197 24 l35 31 0 -36 c0 -32 3 -36 25 -36 l25
0 0 149 c0 186 -11 246 -50 286 -26 26 -38 30 -97 32 -38 2 -84 -3 -103 -10z
m190 -269 c0 -91 -64 -154 -145 -144 -49 6 -75 35 -75 85 0 65 54 99 158 100
l62 1 0 -42z"/>
<path d="M9460 2313 c1 -228 17 -271 110 -293 67 -16 120 0 159 48 l31 37 0
-43 c0 -38 2 -42 25 -42 l25 0 0 230 0 230 -30 0 -30 0 0 -152 c0 -132 -3
-157 -20 -194 -32 -65 -99 -90 -159 -60 -46 24 -54 56 -59 239 l-4 167 -24 0
-24 0 0 -167z"/>
<path d="M13450 2250 l0 -230 25 0 25 0 0 230 0 230 -25 0 -25 0 0 -230z"/>
</g>
</svg>
