<?xml version="1.0" standalone="no"?>
<!DOCTYPE svg PUBLIC "-//W3C//DTD SVG 20010904//EN"
 "http://www.w3.org/TR/2001/REC-SVG-20010904/DTD/svg10.dtd">
<svg version="1.0" xmlns="http://www.w3.org/2000/svg"
 width="1791.000000pt" height="493.000000pt" viewBox="0 0 1791.000000 493.000000"
 preserveAspectRatio="xMidYMid meet">

<g transform="translate(0.000000,493.000000) scale(0.100000,-0.100000)"
fill="#000000" stroke="none">
<path d="M2455 4920 c-522 -48 -988 -232 -1383 -548 -276 -220 -471 -456 -645
-779 -181 -337 -263 -652 -274 -1055 -6 -241 4 -368 44 -563 81 -399 253 -748
538 -1095 67 -81 216 -225 315 -305 113 -90 242 -185 253 -185 3 0 34 -18 69
-39 75 -46 231 -125 285 -145 21 -7 76 -28 122 -45 284 -107 553 -154 881
-154 351 0 634 54 960 185 403 161 766 435 1038 785 70 90 162 226 162 240 0
3 6 14 14 22 45 51 189 373 235 528 151 507 127 1083 -63 1572 -59 150 -113
263 -157 328 -16 23 -29 45 -29 48 0 4 -24 44 -54 90 -175 268 -478 562 -766
742 -300 188 -665 316 -1025 359 -158 19 -395 25 -520 14z m609 -49 c172 -31
265 -55 432 -112 489 -166 917 -493 1223 -932 33 -48 61 -90 61 -92 0 -3 15
-28 34 -57 50 -79 130 -241 169 -343 160 -420 201 -841 126 -1285 -78 -459
-303 -901 -636 -1250 -198 -208 -429 -378 -691 -510 -221 -111 -485 -195 -753
-237 -177 -28 -609 -25 -778 5 -557 100 -1009 335 -1387 723 -188 194 -311
364 -431 596 -74 145 -113 239 -159 388 -176 574 -126 1211 135 1740 107 215
185 333 367 554 53 64 248 246 343 320 363 284 832 469 1301 514 25 3 153 3
285 2 191 -2 264 -7 359 -24z"/>
<path d="M2495 4844 c-414 -33 -770 -145 -1116 -351 -191 -114 -468 -347 -579
-488 -25 -31 -58 -71 -73 -88 -49 -56 -154 -218 -217 -337 -134 -251 -203
-451 -256 -736 -22 -120 -30 -486 -15 -636 31 -294 118 -572 269 -853 243
-457 613 -807 1097 -1039 248 -119 553 -201 820 -221 75 -6 79 -5 60 10 -23
18 -27 19 -155 35 -196 24 -427 86 -610 163 -114 48 -293 140 -337 173 -17 13
-34 24 -37 24 -8 0 -176 120 -211 151 -166 145 -213 190 -297 288 -99 114
-226 294 -291 412 -50 90 -138 295 -175 405 -37 111 -64 224 -89 369 -25 155
-25 524 0 680 56 341 183 664 368 940 48 71 98 142 111 157 13 14 39 46 57 70
52 65 216 225 301 294 447 362 960 544 1535 544 399 0 750 -81 1085 -250 125
-63 162 -84 241 -136 286 -189 519 -423 703 -706 575 -884 473 -2045 -249
-2826 -202 -219 -410 -377 -670 -509 -268 -136 -502 -208 -807 -247 -61 -8
-116 -21 -130 -30 -22 -16 -22 -16 19 -16 154 0 531 86 731 167 380 153 739
419 993 736 319 399 496 873 516 1382 20 526 -124 1009 -432 1450 -173 247
-401 463 -686 648 -95 62 -364 195 -454 225 -305 101 -515 139 -800 146 -93 2
-192 2 -220 0z"/>
<path d="M2604 4700 c-49 -20 -34 -112 21 -126 42 -10 75 19 75 66 0 57 -41
83 -96 60z"/>
<path d="M2990 4650 c-41 -41 -14 -120 41 -120 63 0 90 70 44 115 -29 30 -58
32 -85 5z"/>
<path d="M2180 4640 c-22 -22 -26 -60 -10 -91 13 -24 81 -26 104 -3 22 21 20
77 -2 97 -25 23 -68 21 -92 -3z"/>
<path d="M1896 4558 c-34 -48 -4 -108 53 -108 39 0 61 24 61 65 0 43 -22 65
-65 65 -24 0 -39 -7 -49 -22z"/>
<path d="M3294 4572 c-15 -10 -34 -47 -34 -67 0 -23 45 -65 70 -65 54 0 83 93
38 124 -24 17 -56 20 -74 8z"/>
<path d="M2460 4540 c-9 -18 -21 -20 -100 -20 l-90 0 1 -157 c0 -105 3 -150 9
-135 11 26 23 28 43 8 10 -10 17 -12 25 -4 6 6 15 7 21 4 15 -10 14 -38 -4
-63 -12 -18 -13 -26 -3 -48 l12 -27 27 54 c19 35 28 69 28 98 l0 45 -15 -27
c-8 -16 -19 -28 -25 -28 -16 0 -23 31 -12 59 6 18 6 32 -4 46 -16 27 -6 65 18
65 10 0 20 -4 23 -9 3 -5 15 -7 26 -4 30 8 35 -21 11 -56 -13 -18 -17 -32 -11
-36 5 -3 10 -16 10 -28 0 -16 9 -6 30 32 23 42 30 66 29 105 -1 38 -3 44 -8
26 -4 -14 -15 -26 -24 -28 -15 -3 -17 4 -15 52 l2 56 38 0 c28 0 38 4 38 16 0
11 -6 15 -20 11 -11 -3 -23 -1 -26 4 -9 15 -23 10 -34 -11z"/>
<path d="M2745 4530 c3 -5 10 -10 16 -10 5 0 9 5 9 10 0 6 -7 10 -16 10 -8 0
-12 -4 -9 -10z"/>
<path d="M2532 4500 c-10 -17 -10 -25 1 -45 l13 -25 22 45 22 45 -23 0 c-12 0
-28 -9 -35 -20z"/>
<path d="M2706 4493 c10 -18 22 -33 27 -33 4 0 5 5 1 12 -5 8 -2 9 9 5 14 -5
15 -3 5 18 -8 17 -15 22 -23 15 -7 -6 -16 -5 -25 3 -7 6 -4 -3 6 -20z m34 3
c0 -3 -4 -8 -10 -11 -5 -3 -10 -1 -10 4 0 6 5 11 10 11 6 0 10 -2 10 -4z"/>
<path d="M2821 4506 c-9 -11 -10 -20 -1 -36 13 -25 4 -60 -15 -60 -8 0 -18 12
-22 28 l-6 27 -8 -30 c-10 -36 -4 -65 29 -129 l24 -50 13 30 c10 23 9 33 -2
49 -7 11 -13 30 -13 43 0 21 4 23 24 18 14 -3 28 -2 31 4 11 17 33 11 40 -10
4 -12 0 -31 -9 -44 -10 -16 -11 -27 -5 -33 6 -6 9 -23 7 -39 -4 -35 -32 -39
-36 -6 -5 36 -22 14 -22 -29 0 -23 11 -61 26 -91 25 -48 27 -51 40 -33 18 24
18 30 -2 60 -9 14 -13 33 -9 45 7 22 20 26 30 9 5 -7 13 -5 25 6 10 9 24 14
29 10 14 -8 14 -58 1 -71 -6 -6 -6 -21 2 -42 10 -25 10 -34 0 -44 -11 -11 -17
-8 -31 11 -16 21 -19 21 -24 6 -4 -9 -7 -24 -7 -33 0 -17 68 -162 76 -162 2 0
4 137 4 305 l0 305 -89 0 c-65 0 -92 -4 -100 -14z"/>
<path d="M2567 4357 c-37 -72 -68 -135 -67 -139 0 -15 17 -7 79 38 l62 45 70
-52 c38 -28 72 -49 75 -46 7 6 -134 287 -144 287 -4 0 -38 -60 -75 -133z"/>
<path d="M1653 4440 c-64 -59 14 -154 85 -104 25 18 31 84 9 103 -28 23 -71
23 -94 1z"/>
<path d="M3536 4424 c-22 -22 -20 -70 4 -94 41 -41 110 -13 110 45 0 43 -22
65 -65 65 -18 0 -41 -7 -49 -16z"/>
<path d="M1831 4304 c-87 -91 -111 -122 -111 -144 0 -23 4 -27 20 -23 12 3 22
-1 26 -10 3 -9 13 -13 25 -10 26 7 36 -23 15 -46 -9 -10 -16 -28 -16 -42 1
-23 2 -22 35 13 40 43 47 79 15 71 -23 -6 -39 22 -22 39 8 8 8 17 1 30 -6 10
-7 28 -4 38 7 23 45 27 45 5 0 -9 11 -20 25 -25 29 -11 31 -19 10 -46 -13 -18
-21 -54 -10 -54 2 0 16 5 30 12 19 9 25 19 25 45 0 23 -5 33 -15 33 -24 0 -29
27 -11 55 9 14 14 30 10 36 -3 6 -3 21 0 35 9 34 53 34 62 -1 3 -14 4 -31 1
-39 -3 -8 1 -20 9 -26 22 -19 18 -60 -7 -60 -17 0 -20 -5 -17 -31 4 -40 44
-72 54 -44 4 10 2 26 -4 36 -12 19 -6 49 10 49 5 0 18 10 28 22 15 20 20 21
35 8 11 -9 14 -21 10 -34 -4 -12 -6 -35 -6 -53 2 -36 -13 -50 -34 -33 -26 22
-17 -31 10 -65 24 -29 36 -18 16 14 -13 20 -2 41 19 41 11 0 21 4 24 9 4 5 14
8 24 6 9 -2 20 -4 25 -4 10 -1 9 -39 -3 -46 -5 -3 -7 -18 -4 -33 6 -30 -18
-63 -31 -42 -8 13 -25 13 -25 0 0 -6 10 -27 23 -48 24 -37 55 -115 39 -97 -5
6 -25 35 -45 66 -45 70 -133 158 -166 166 -35 9 -68 -13 -122 -81 -73 -89
-113 -171 -111 -227 1 -34 -4 -52 -18 -64 -36 -32 -93 12 -70 54 11 22 14 311
3 311 -13 -1 -183 -125 -261 -192 -286 -243 -494 -574 -590 -938 -47 -179 -56
-257 -57 -475 0 -215 7 -274 57 -470 151 -594 603 -1083 1203 -1300 50 -17
114 -38 143 -45 l52 -12 0 -64 c0 -103 36 -184 129 -293 81 -96 255 -201 329
-201 35 1 132 41 185 77 74 50 200 184 229 244 29 59 48 137 48 198 l0 37 83
24 c631 181 1141 694 1307 1315 73 274 84 590 29 859 -54 266 -188 560 -347
761 -109 137 -206 237 -311 319 -99 78 -242 176 -256 176 -6 0 -1 -285 6 -344
3 -24 -1 -33 -23 -45 -25 -14 -28 -14 -48 4 -17 16 -20 26 -14 50 3 16 8 100
10 185 3 124 2 151 -8 135 -7 -11 -11 -32 -9 -48 3 -31 -21 -46 -44 -27 -21
18 -19 -2 4 -42 22 -37 53 -108 48 -108 -3 0 -23 28 -45 63 -65 97 -147 177
-182 177 -68 0 -243 -262 -224 -336 7 -27 -18 -64 -43 -64 -23 0 -55 40 -49
62 6 26 -37 113 -119 238 -67 102 -110 152 -165 193 -51 37 -81 42 -126 19
-39 -20 -126 -105 -176 -172 -53 -71 -141 -244 -140 -276 2 -39 -28 -69 -58
-59 -29 9 -45 47 -31 73 7 13 11 92 11 214 l0 193 -123 123 c-67 67 -125 122
-129 122 -3 0 -56 -52 -117 -116z m844 -364 l30 -62 54 7 c30 4 60 9 68 12 23
9 14 -18 -23 -69 -34 -46 -36 -51 -23 -75 8 -14 31 -40 52 -56 20 -17 37 -35
37 -40 0 -6 -30 -7 -77 -3 l-78 7 -34 -66 c-18 -36 -37 -65 -41 -65 -4 0 -18
25 -30 55 -25 60 -30 63 -117 46 -23 -5 -45 -6 -47 -3 -3 2 8 31 24 63 17 32
30 63 30 69 0 6 -18 35 -40 64 -22 29 -40 56 -40 61 0 7 89 0 136 -12 16 -3
23 1 27 19 11 42 48 119 55 114 4 -2 21 -32 37 -66z m1158 -351 c102 -34 167
-116 167 -212 0 -45 -16 -97 -30 -97 -4 0 -22 19 -40 42 -40 49 -42 87 -8 144
l22 37 -35 -7 c-19 -4 -51 -10 -71 -13 -24 -3 -43 -13 -53 -29 -21 -32 -11
-66 18 -62 18 2 22 10 22 36 0 24 4 32 18 32 10 0 25 7 34 15 23 23 27 11 9
-24 -9 -16 -16 -39 -16 -50 0 -23 -12 -27 -103 -35 -36 -3 -55 -1 -51 5 10 17
-5 59 -21 59 -17 0 -19 11 -6 26 5 5 11 25 13 44 2 21 8 34 16 33 14 -3 16 13
3 22 -16 9 -41 -25 -41 -54 0 -45 -35 -81 -78 -81 -78 0 -106 -21 -55 -41 48
-18 94 -60 114 -103 10 -22 17 -32 14 -20 -3 12 2 31 13 44 29 35 66 21 97
-38 14 -26 30 -54 37 -63 15 -22 -28 -103 -58 -107 -22 -3 -74 60 -74 90 0 9
-7 19 -16 22 -23 9 -30 0 -14 -18 10 -13 6 -18 -27 -33 -21 -10 -39 -18 -41
-19 -2 -1 4 -16 12 -33 15 -27 15 -35 2 -66 -11 -26 -21 -35 -38 -35 -20 0
-18 -4 20 -37 55 -47 82 -99 82 -160 1 -26 7 -59 15 -73 21 -37 18 -58 -12
-86 -23 -21 -34 -24 -63 -19 -19 4 -42 13 -51 21 -9 8 -19 11 -22 7 -9 -9 -9
-23 1 -21 4 0 14 -1 22 -4 8 -3 34 -11 58 -17 52 -15 50 -31 -5 -50 -51 -18
-84 -6 -113 41 -24 40 -15 58 12 23 20 -26 53 -35 46 -12 -3 6 -9 12 -14 12
-11 0 -64 40 -64 49 0 3 18 17 40 31 22 14 40 31 40 39 0 7 6 19 14 25 8 6 16
22 20 34 5 21 4 21 -15 -3 -11 -14 -24 -35 -29 -48 -5 -12 -25 -30 -45 -39
-19 -9 -37 -25 -41 -35 -3 -10 -17 -26 -30 -35 -23 -14 -27 -15 -41 -1 -21 21
-1 58 31 58 17 0 27 9 36 29 6 16 20 37 31 47 10 9 19 26 19 36 0 11 5 29 12
41 10 20 10 21 -5 8 -10 -7 -17 -23 -17 -36 0 -12 -9 -30 -19 -39 -11 -10 -25
-31 -31 -47 -9 -21 -19 -29 -36 -29 -16 0 -28 -8 -36 -25 -15 -34 -27 -32 -26
5 1 23 7 32 24 36 13 3 26 14 29 24 3 9 14 25 25 35 12 11 20 31 20 52 0 22 8
40 23 53 52 48 57 54 57 67 0 8 -4 11 -10 8 -5 -3 -10 -13 -10 -21 0 -23 -56
-17 -77 9 -10 12 -31 28 -46 35 -17 7 -35 28 -47 55 -32 70 -23 115 21 99 20
-8 23 -15 21 -50 -4 -44 7 -57 38 -47 27 9 25 22 -2 21 -24 -1 -26 8 -13 51 6
18 2 23 -19 29 -43 10 -53 32 -27 57 l22 22 26 -30 c23 -26 33 -30 77 -30 28
-1 61 -4 73 -8 18 -7 25 -1 47 34 13 24 22 47 19 52 -3 5 -30 20 -59 33 -45
20 -54 28 -59 56 -19 102 61 224 174 264 51 18 83 17 154 -7z m-1568 -77 c5
-11 18 -23 29 -26 19 -5 19 -6 3 -24 -21 -23 -22 -58 -2 -66 17 -6 45 29 45
56 0 17 45 47 55 36 3 -2 -4 -22 -15 -43 -11 -22 -20 -47 -20 -57 0 -15 -9
-18 -60 -18 -36 0 -74 -7 -91 -15 -30 -16 -30 -16 -74 32 -24 26 -44 51 -45
56 0 12 24 7 44 -8 11 -8 27 -15 36 -15 11 0 16 -8 16 -22 -1 -17 5 -23 19
-23 25 0 33 47 12 66 -9 9 -11 19 -6 29 4 8 10 28 14 43 6 32 25 32 40 -1z
m1934 4 c6 -7 9 -21 5 -30 -4 -11 0 -16 14 -16 12 0 23 -4 27 -9 6 -10 -21
-41 -36 -41 -13 0 -11 -196 2 -239 6 -20 18 -48 25 -62 12 -23 11 -28 -6 -44
-19 -17 -19 -18 2 -46 21 -28 21 -29 5 -146 -25 -179 -27 -205 -33 -378 -6
-170 2 -234 39 -312 35 -74 40 -73 -312 -73 -225 0 -310 3 -319 12 -18 18 -15
55 6 68 15 9 14 10 -8 8 -21 -3 -25 -9 -28 -41 -2 -26 2 -45 13 -58 15 -16 16
-33 10 -139 -6 -106 -5 -120 9 -120 13 0 16 19 18 123 l3 122 295 0 295 0 0
-123 c0 -84 4 -122 11 -122 18 0 35 -26 28 -44 -5 -14 -41 -16 -346 -16 l-340
0 4 30 c3 19 1 29 -6 27 -20 -7 -18 -54 2 -69 19 -13 19 -17 7 -88 -17 -100
-41 -180 -58 -197 -21 -22 -66 2 -59 31 3 11 8 26 13 31 12 16 39 258 47 427
7 165 -2 210 -13 60 -14 -194 -35 -390 -44 -415 -5 -14 -15 -29 -22 -33 -9 -5
-7 -9 7 -14 16 -6 12 -11 -26 -30 -25 -12 -62 -38 -82 -58 -36 -34 -39 -35
-75 -24 -21 6 -54 27 -72 46 -34 35 -34 35 -23 88 7 29 13 67 15 83 l3 30 17
-37 c9 -20 22 -40 27 -43 8 -5 6 -13 -6 -26 -20 -22 -12 -49 14 -49 30 0 45
26 39 65 -5 30 -3 35 13 35 10 0 22 5 25 11 13 19 58 31 67 17 5 -9 8 -6 8 11
0 18 -4 22 -17 16 -10 -4 -28 -10 -40 -12 -21 -5 -22 -3 -17 53 3 33 10 87 15
120 8 44 8 77 0 116 -13 62 -11 72 36 140 34 52 44 79 20 59 -18 -14 -38 25
-27 54 14 35 63 75 80 65 13 -8 13 -12 1 -32 -10 -17 -17 -79 -22 -223 -5
-110 -11 -218 -14 -240 -4 -29 -3 -34 4 -19 12 26 31 240 31 344 0 106 17 147
61 152 26 2 34 9 39 28 5 22 17 28 93 49 94 27 109 37 31 22 -134 -26 -146
-21 -61 27 88 50 97 49 167 -9 34 -28 63 -49 65 -47 3 2 -16 27 -41 56 -25 29
-44 52 -42 53 2 1 29 2 60 4 37 2 69 10 93 25 57 36 125 149 125 209 0 16 -9
0 -24 -44 -37 -109 -96 -153 -230 -171 -31 -5 -46 -3 -46 5 0 6 4 11 9 11 16
0 71 51 86 80 8 16 19 82 25 147 6 65 12 134 15 153 5 35 5 35 -5 5 -5 -16
-13 -66 -16 -110 -8 -106 -45 -188 -106 -238 -31 -25 -55 -37 -77 -37 -38 0
-38 4 -6 42 14 16 25 41 25 54 0 14 6 26 13 28 67 19 101 32 115 43 16 13 15
14 -4 8 -16 -4 -24 3 -42 37 -25 52 -44 130 -36 155 3 10 17 43 32 75 22 46
32 57 58 62 17 4 44 18 59 32 l27 25 20 -26 c10 -14 25 -25 32 -25 19 0 77
-77 93 -123 11 -33 12 -65 2 -183 -9 -112 -9 -151 1 -173 9 -22 9 -34 0 -50
-7 -15 -8 -27 0 -41 16 -29 16 -169 1 -213 -10 -29 -22 -43 -47 -53 -39 -16
-102 -18 -139 -4 -17 6 -50 6 -97 0 -58 -9 -75 -8 -93 4 -21 14 -23 14 -18 -5
8 -28 35 -32 201 -27 106 3 153 8 170 18 42 27 82 104 94 177 10 67 5 459 -8
604 -6 60 -4 69 16 89 21 21 22 24 7 35 -21 15 -21 24 -1 46 12 14 17 48 22
144 5 118 4 128 -17 155 -27 37 -27 50 0 50 18 0 19 2 9 15 -10 12 -10 18 0
30 15 19 24 19 39 1z m-2619 -53 c11 -30 10 -34 -10 -51 -15 -12 -21 -25 -17
-35 9 -24 46 -21 55 4 7 17 18 21 63 24 45 3 51 1 34 -8 -11 -7 -36 -28 -55
-48 l-35 -36 -44 23 c-24 13 -57 24 -73 24 -71 0 -138 -59 -138 -122 0 -23 -8
-32 -49 -53 -63 -31 -69 -42 -34 -57 39 -18 70 -54 99 -117 27 -58 110 -191
119 -191 3 0 -6 17 -20 37 -29 44 -33 69 -6 36 11 -13 22 -23 26 -23 3 0 -15
25 -40 57 -47 57 -80 112 -72 119 2 2 23 -3 47 -11 51 -18 82 -19 97 -4 17 17
61 -20 67 -56 11 -74 25 -219 21 -224 -3 -2 -14 4 -26 15 -18 16 -20 26 -15
79 l5 60 -15 -49 -16 -49 -25 29 -25 29 21 -32 c12 -17 43 -55 70 -83 26 -28
44 -53 38 -57 -5 -3 -37 23 -70 58 -34 35 -53 54 -43 42 15 -19 16 -27 6 -57
-14 -43 -18 -45 -78 -56 l-47 -9 58 3 c48 2 57 0 55 -13 -2 -12 -22 -18 -77
-23 -90 -9 -104 -18 -30 -18 76 0 101 -16 120 -75 33 -105 33 -103 -8 -111
-25 -5 -53 -2 -84 9 -58 21 -80 21 -126 2 -35 -15 -38 -15 -53 4 -8 11 -27 25
-43 30 -27 10 -27 11 -13 44 7 19 28 53 45 77 29 40 30 45 15 61 -23 26 -9 42
21 23 13 -8 36 -14 52 -11 28 4 28 4 -3 6 -36 1 -49 14 -60 56 -4 17 -15 47
-26 68 l-19 37 26 35 c15 18 32 36 38 39 9 3 9 5 0 5 -15 1 -177 -165 -181
-185 -2 -8 6 -65 18 -126 19 -92 20 -112 9 -119 -11 -7 -10 -9 5 -9 29 0 96
-22 96 -32 0 -5 -11 -6 -25 -2 -32 8 -32 -6 0 -44 29 -34 31 -42 10 -42 -8 0
-43 27 -78 61 -61 57 -66 65 -87 142 -12 45 -28 102 -36 126 -25 80 -22 89 74
182 96 95 160 142 213 157 l34 10 -35 1 c-47 1 -98 -34 -211 -145 -100 -97
-113 -126 -91 -202 6 -20 18 -68 27 -107 27 -114 31 -128 54 -179 19 -45 20
-51 6 -72 -8 -13 -33 -33 -55 -44 -47 -24 -60 -45 -60 -97 0 -64 32 -93 122
-108 20 -3 39 -13 42 -21 9 -25 -23 -81 -82 -146 -44 -47 -55 -66 -59 -101 -8
-80 69 -157 157 -157 20 0 30 -5 30 -15 0 -22 -52 -19 -110 6 -41 18 -53 30
-75 72 -29 58 -30 88 -10 172 8 33 14 84 15 113 0 49 2 52 25 52 36 0 48 -30
30 -79 -17 -48 -12 -54 10 -11 38 74 5 111 -85 93 -48 -10 -52 -9 -66 12 -13
20 -12 29 3 81 15 50 18 101 18 344 0 207 4 291 13 307 6 12 30 32 53 45 32
18 47 36 69 85 24 53 37 68 87 101 33 21 58 43 55 50 -2 7 0 20 4 30 4 9 6 21
5 26 -4 16 41 55 75 66 25 9 34 17 34 34 0 25 54 116 69 116 25 0 29 36 11 88
-15 42 -16 52 -5 52 25 0 64 -62 58 -92 -5 -25 -2 -28 22 -28 26 0 27 2 22 35
-5 28 -1 41 20 66 28 33 33 31 53 -18z m2230 -38 c0 -8 -7 -15 -15 -15 -16 0
-20 12 -8 23 11 12 23 8 23 -8z m-978 -46 c20 -59 12 -99 -28 -141 -21 -21
-31 -25 -41 -17 -17 15 -18 -12 -1 -29 17 -17 28 -15 28 7 0 11 5 23 10 26 6
4 10 -7 10 -25 0 -25 -6 -34 -32 -48 -34 -18 -78 -60 -114 -108 -19 -25 -22
-46 -26 -161 -4 -128 -5 -134 -33 -175 -36 -50 -86 -82 -115 -73 -29 9 -25 18
21 40 31 15 48 33 68 70 24 47 26 62 32 225 3 96 11 187 17 202 11 27 103 84
115 72 13 -13 19 70 7 89 -10 18 -10 19 7 15 23 -6 43 20 43 57 0 40 14 29 32
-26z m767 22 c9 -6 22 -6 31 -1 20 10 60 2 60 -12 0 -6 -7 -8 -15 -4 -9 3 -15
0 -15 -9 0 -8 5 -15 12 -15 9 0 9 -3 1 -11 -8 -8 -26 -3 -67 19 -30 16 -53 32
-49 36 9 9 25 7 42 -3z m264 -52 c12 -6 46 -36 74 -67 42 -46 53 -64 53 -92 0
-19 7 -46 15 -60 8 -14 14 -45 15 -69 0 -42 -1 -43 -27 -36 -39 9 -60 31 -73
74 -23 75 -33 90 -71 115 -21 15 -45 42 -53 60 -17 42 -47 59 -92 54 -44 -5
-30 9 21 21 56 13 112 13 138 0z m-1484 -24 c11 -14 22 -39 26 -54 3 -16 17
-39 31 -51 29 -29 30 -41 3 -66 -21 -19 -54 -20 -76 -2 -18 15 -35 -1 -30 -29
5 -29 -20 -46 -66 -41 -23 2 -33 9 -35 23 -2 12 -15 25 -30 31 -27 10 -27 12
-26 93 1 45 4 85 7 88 14 13 87 32 129 33 38 0 50 -5 67 -25z m-804 -18 c26
-20 13 -71 -16 -62 -18 6 -19 4 -10 -13 16 -30 14 -48 -11 -87 -24 -36 -53
-45 -78 -22 -12 10 -12 9 -1 -5 7 -10 23 -18 34 -18 20 0 20 -1 5 -17 -15 -14
-23 -15 -55 -5 -21 7 -45 17 -53 22 -13 9 -13 12 2 24 23 17 38 59 38 102 0
71 90 120 145 81z m1954 -37 c18 -5 44 -16 57 -25 23 -15 23 -17 10 -44 -14
-27 -17 -28 -87 -26 -62 2 -76 6 -91 25 -15 18 -25 50 -15 50 1 0 20 7 42 15
49 17 43 17 84 5z m-1837 -36 c-19 -13 -31 -44 -18 -44 2 0 12 -3 22 -7 14 -5
16 -2 12 15 -8 29 10 39 30 18 13 -12 14 -18 4 -28 -23 -23 -14 -75 18 -108
29 -30 30 -34 30 -126 0 -86 -2 -95 -17 -92 -15 3 -19 18 -24 83 -5 70 -6 73
-7 24 -1 -31 -5 -103 -8 -160 -6 -97 -5 -106 15 -129 20 -24 22 -24 35 -7 10
13 16 15 21 7 16 -26 -24 -45 -100 -48 -47 -3 -75 -8 -75 -16 0 -6 7 -72 15
-146 9 -74 19 -173 25 -220 5 -47 10 -179 12 -295 l3 -210 -27 -45 c-31 -53
-128 -114 -149 -93 -15 15 -3 33 24 33 12 0 42 22 74 55 68 70 70 99 13 175
-22 29 -40 63 -40 75 0 12 16 35 36 53 47 41 45 85 -4 119 -18 12 -38 23 -44
25 -9 3 -8 21 2 66 13 63 9 371 -5 418 -8 26 18 54 50 54 13 0 36 10 50 23
l27 23 -9 129 c-5 86 -9 112 -11 75 -3 -53 -15 -80 -34 -80 -5 0 -7 45 -6 103
l3 102 55 5 c48 5 51 6 20 10 -25 4 -34 9 -31 20 8 29 2 71 -14 86 -8 9 -15
22 -15 29 0 19 28 45 48 45 13 0 12 -3 -6 -16z m2180 -61 c12 -14 38 -75 38
-89 0 -11 -78 -54 -97 -54 -25 0 -33 33 -11 46 7 4 8 3 4 -5 -4 -6 -1 -14 8
-17 18 -7 76 26 76 43 0 8 -7 6 -20 -7 -25 -25 -32 -25 -49 1 -11 19 -10 27 6
60 21 44 24 46 45 22z m-1274 -208 c-5 -173 -12 -202 -61 -252 -36 -39 -54
-43 -32 -9 20 30 37 89 24 81 -5 -4 -9 -12 -9 -20 0 -19 -50 -77 -64 -72 -6 2
-14 28 -17 58 l-6 54 -1 -58 c-2 -43 6 -77 28 -135 43 -112 58 -189 70 -357 5
-82 15 -184 21 -225 5 -41 9 -133 7 -205 l-3 -130 -32 -3 c-25 -2 -33 -8 -33
-23 0 -14 -7 -19 -29 -19 -22 0 -31 -6 -41 -30 -17 -42 -36 -56 -55 -40 -13
11 -20 11 -40 0 -14 -7 -27 -11 -30 -8 -3 3 2 40 10 84 8 43 15 111 15 149 0
106 -18 284 -35 340 -10 33 -13 38 -9 15 3 -19 8 -129 11 -244 6 -255 -3 -316
-52 -346 -41 -25 -70 -18 -53 13 17 33 16 461 -2 640 -9 92 -17 140 -22 127
-4 -11 0 -93 8 -182 16 -157 14 -456 -2 -546 -6 -30 -9 -33 -34 -27 -35 8 -44
-5 -45 -65 l0 -45 -46 -10 c-25 -5 -62 -22 -82 -37 -27 -21 -47 -28 -81 -28
-54 0 -65 24 -15 34 45 9 149 113 149 148 0 20 -5 28 -18 28 -28 0 -31 7 -20
53 6 23 11 143 12 267 l2 225 42 119 c23 66 42 127 42 137 0 10 12 30 27 43
19 18 24 29 17 36 -7 7 -8 30 -3 63 4 28 8 84 8 122 1 39 6 76 12 82 8 8 7 17
-5 34 -21 30 -21 75 0 87 20 11 15 51 -8 66 -30 19 -53 -4 -53 -53 0 -36 -6
-48 -33 -72 -31 -28 -33 -32 -18 -48 17 -18 21 -59 8 -76 -4 -5 -16 -15 -27
-21 -20 -12 -21 -22 -10 -79 5 -23 2 -35 -14 -49 -28 -25 -27 -46 2 -45 19 0
20 1 4 8 -17 6 -17 8 1 25 28 25 36 62 18 88 -17 24 -6 48 23 48 13 0 18 10
19 40 2 22 -2 48 -7 59 -8 14 -7 20 4 25 8 3 23 21 32 41 l17 35 13 -52 c10
-36 10 -54 3 -56 -26 -9 -54 -102 -30 -102 19 0 10 -42 -9 -47 -21 -5 -36 -58
-25 -87 4 -11 1 -16 -12 -16 -17 0 -16 -1 2 -15 10 -8 32 -15 49 -15 28 0 28
-1 -15 -22 -29 -15 -57 -22 -79 -19 -28 3 -36 9 -49 42 -8 22 -18 39 -21 39
-13 0 -4 176 11 216 27 70 109 228 129 250 27 29 108 47 149 32 25 -8 44 -7
91 7 33 10 62 15 66 11 4 -3 -5 -18 -19 -33 -27 -26 -62 -33 -105 -18 -14 4
-23 3 -23 -3 0 -12 34 -22 74 -22 58 0 126 64 97 93 -8 8 -26 6 -64 -6 -66
-21 -107 -22 -133 -3 -30 22 -10 29 44 16 43 -11 55 -11 96 5 l48 19 18 -24
c16 -21 23 -22 69 -17 56 7 60 1 34 -41 l-17 -27 23 20 c18 16 21 26 16 53 -5
30 -2 38 37 75 42 42 43 42 46 17 2 -14 2 -97 0 -185z m1080 146 c4 -41 -12
-82 -44 -112 -28 -27 -43 -19 -25 15 15 28 18 62 7 94 -6 18 -3 24 16 31 34
14 43 8 46 -28z m-2007 -4 c-10 -9 -11 -8 -5 6 3 10 9 15 12 12 3 -3 0 -11 -7
-18z m-281 -23 c37 -22 53 -25 93 -20 42 4 48 3 45 -12 -2 -10 -14 -18 -30
-20 -29 -4 -140 41 -159 64 -17 21 1 17 51 -12z m1695 -61 c-4 -17 0 -32 12
-45 17 -19 17 -20 0 -29 -24 -14 -21 -36 9 -55 17 -12 24 -23 21 -36 -5 -16
-3 -17 10 -6 11 9 17 10 20 2 2 -6 12 -28 23 -48 15 -31 16 -38 4 -43 -8 -3
-14 -14 -14 -24 0 -13 -7 -19 -21 -19 -35 0 -59 19 -59 47 0 21 -4 25 -24 21
-18 -4 -27 1 -34 16 -10 20 -11 19 -11 -7 -1 -25 2 -28 27 -25 24 3 27 0 24
-22 -5 -34 -5 -33 -47 -16 -43 18 -45 19 -45 8 0 -5 10 -14 23 -21 28 -15 77
-100 77 -134 0 -14 -5 -38 -11 -54 l-11 -28 -11 25 c-46 111 -62 141 -84 162
-20 19 -19 13 12 -37 42 -70 66 -144 58 -177 -5 -18 -3 -20 7 -11 9 8 25 3 69
-23 31 -19 66 -34 79 -34 26 0 26 2 6 -45 -20 -48 -15 -99 9 -103 12 -3 20 4
24 17 7 27 23 27 23 1 0 -23 -34 -44 -54 -33 -7 4 -26 23 -42 42 -18 22 -60
49 -112 73 -62 30 -86 46 -94 66 -21 53 -81 172 -85 169 -4 -5 50 -146 74
-195 15 -29 15 -35 2 -43 -32 -21 -62 -22 -75 -4 -8 10 -17 15 -21 11 -12 -11
36 -46 62 -46 13 0 32 11 43 25 12 16 26 23 36 19 37 -14 -48 -85 -105 -86
-55 -2 -89 70 -58 120 8 13 7 27 -6 57 -23 53 -31 192 -13 225 8 14 34 36 58
49 86 46 95 53 78 62 -10 5 -14 18 -11 33 4 18 -3 30 -30 50 -44 34 -50 49
-33 89 23 54 59 80 121 85 56 5 72 -7 38 -27 -17 -10 -17 -10 -1 -11 10 0 25
11 34 25 20 30 38 22 29 -12z m-955 -104 c0 -5 -7 -9 -15 -9 -9 0 -15 9 -15
21 0 18 2 19 15 9 8 -7 15 -16 15 -21z m-686 5 c3 -8 2 -12 -4 -9 -6 3 -10 10
-10 16 0 14 7 11 14 -7z m1680 -9 c3 -9 0 -15 -9 -15 -8 0 -15 7 -15 15 0 8 4
15 9 15 5 0 11 -7 15 -15z m-1941 -181 c-12 -32 -38 -6 -27 28 6 20 7 21 20 4
7 -10 10 -24 7 -32z m391 -16 c14 -19 13 -23 -7 -48 -26 -32 -37 -29 -37 10 0
59 18 75 44 38z m536 -48 c0 -25 -5 -63 -11 -85 -18 -69 -18 -69 -34 -55 -21
18 -19 67 4 79 25 14 33 48 14 67 -13 13 -14 20 -4 42 17 35 31 13 31 -48z
m994 10 c14 -17 28 -47 32 -66 6 -34 0 -141 -9 -150 -2 -3 -16 1 -31 7 -19 9
-25 17 -20 28 4 9 9 39 11 68 5 43 1 60 -20 97 -23 42 -24 46 -7 46 10 0 30
-14 44 -30z m-1894 -82 c0 -21 -19 -33 -31 -21 -6 6 -6 20 2 37 13 28 29 19
29 -16z m2280 -8 c9 -16 7 -24 -10 -42 -13 -14 -18 -28 -13 -38 14 -31 16
-132 1 -141 -10 -7 -9 -9 5 -9 17 0 18 8 15 90 -3 93 8 128 34 102 7 -7 25
-12 40 -12 32 0 37 -17 11 -35 -11 -8 -18 -28 -19 -56 -3 -80 -16 -141 -32
-147 -8 -3 -28 2 -44 11 -17 9 -43 17 -59 17 -20 0 -29 5 -29 16 0 12 6 15 28
10 20 -5 23 -4 11 3 -24 15 -67 7 -92 -17 -18 -17 -36 -22 -80 -22 -51 0 -57
2 -57 21 0 11 14 33 30 47 18 16 30 36 30 50 0 14 -13 40 -30 59 -38 43 -39
70 -2 84 48 19 153 -4 128 -28 -4 -4 -28 -10 -54 -14 l-47 -8 57 3 c52 2 56 1
47 -15 -5 -10 -17 -24 -27 -31 -11 -7 -22 -25 -26 -41 -3 -15 -15 -36 -26 -47
-15 -15 -16 -20 -5 -20 7 0 19 8 24 18 9 14 10 14 11 2 0 -9 -5 -21 -12 -28
-9 -9 -9 -12 1 -12 27 0 49 20 44 40 -6 22 7 26 24 9 6 -6 23 -9 39 -7 28 3
29 5 29 61 1 32 -2 60 -7 63 -9 6 6 39 30 67 19 21 19 21 32 -3z m-2085 -155
c22 -8 64 -14 94 -15 l54 0 -19 -22 c-10 -11 -53 -37 -94 -56 l-74 -35 -42 22
c-23 12 -59 40 -80 62 l-39 41 35 -6 c21 -3 47 0 65 8 39 19 52 19 100 1z
m-43 -135 c16 0 43 7 59 16 17 8 36 13 42 11 16 -6 97 -259 97 -303 0 -10 -6
-36 -14 -59 -24 -69 -51 -256 -51 -354 l1 -94 47 -43 c27 -24 69 -50 99 -60
70 -23 42 -36 -47 -22 -52 8 -82 7 -121 -2 -28 -7 -57 -10 -63 -6 -7 5 -9 43
-4 124 5 93 2 129 -11 174 -23 78 -20 143 9 233 33 100 24 140 -45 205 -26 25
-59 63 -74 84 -14 21 -26 33 -26 25 0 -8 16 -34 35 -59 19 -25 49 -63 65 -84
17 -21 30 -47 30 -56 0 -9 -18 -57 -39 -106 -38 -89 -81 -224 -81 -257 0 -12
8 -17 28 -17 63 0 102 -12 102 -31 0 -22 -37 -25 -102 -10 l-38 9 0 -47 c1
-37 6 -52 31 -79 16 -18 43 -38 59 -44 32 -11 41 -38 12 -38 -9 0 -33 5 -52
11 -19 6 -60 14 -90 17 -63 8 -62 4 -37 134 11 60 12 95 4 166 l-10 89 38 81
c33 72 37 87 31 129 -7 48 -36 292 -36 305 0 19 49 10 84 -14 21 -16 52 -28
68 -28z m1707 25 c27 -13 28 -16 20 -62 -9 -56 -28 -113 -59 -173 -35 -68 -1
-42 39 31 l36 64 3 -53 c3 -47 -13 -132 -34 -186 -5 -12 -4 -17 3 -13 6 4 21
34 33 67 12 33 25 60 29 60 3 0 31 -9 60 -19 78 -25 82 -43 41 -179 -18 -59
-34 -112 -36 -119 -1 -6 -12 -9 -25 -6 -19 5 -20 3 -13 -18 12 -36 7 -91 -10
-124 -9 -17 -16 -35 -16 -41 0 -20 -53 -74 -73 -74 -27 0 -30 23 -9 61 40 72
54 132 57 249 l3 115 -7 -105 c-13 -169 -58 -277 -132 -315 -67 -35 -105 -6
-155 119 -14 36 -37 75 -50 85 -15 12 -20 22 -14 26 16 10 51 -5 95 -40 22
-18 50 -35 63 -39 12 -3 31 -9 42 -12 11 -3 20 -1 20 5 0 5 -14 12 -30 16 -31
7 -90 50 -90 66 0 5 17 10 38 10 35 1 36 2 7 8 -21 4 -36 18 -52 46 -19 34
-22 49 -16 106 5 63 4 69 -26 113 -52 76 -56 95 -30 171 19 56 20 71 10 104
-17 58 -13 68 12 30 19 -28 30 -35 65 -37 48 -4 105 20 130 54 20 27 33 29 71
9z m-1945 -81 c10 -25 7 -72 -5 -80 -6 -3 -17 0 -25 7 -11 12 -11 22 -2 52 12
40 22 46 32 21z m80 -130 c18 -47 -8 -90 -34 -58 -10 11 -10 21 0 44 14 33 25
38 34 14z m-66 -200 c-2 -31 -7 -39 -23 -39 -16 0 -19 6 -17 29 8 74 46 83 40
10z m-60 -118 c4 -33 -10 -51 -32 -43 -12 5 -13 12 -3 42 12 41 30 41 35 1z
m511 -48 c-21 -40 -47 -2 -34 50 l6 26 19 -29 c14 -21 16 -33 9 -47z m-418
-51 c-7 -7 -15 -6 -26 3 -15 13 -14 26 8 80 9 23 11 22 19 -24 6 -32 5 -53 -1
-59z m3049 -17 c0 -80 0 -81 -52 -160 l-52 -80 -259 0 c-232 0 -259 2 -253 16
3 9 6 81 6 160 l0 144 305 0 305 0 0 -80z m-2836 8 c6 -27 -4 -40 -23 -29 -8
5 -11 16 -6 30 8 27 21 27 29 -1z m1381 -35 c19 -21 35 -43 35 -49 0 -6 11
-32 25 -58 14 -26 25 -48 25 -49 0 -1 -42 -2 -92 -2 -63 0 -110 -6 -146 -18
-62 -21 -92 -15 -92 16 1 21 1 21 15 4 23 -32 50 -17 53 28 2 31 -6 52 -32 95
l-35 55 62 6 c141 13 145 12 182 -28z m-245 -33 c11 0 22 -12 29 -31 14 -39 9
-47 -26 -42 -23 3 -41 -8 -96 -57 -61 -54 -73 -60 -110 -59 -32 0 -37 2 -22 9
45 19 145 143 145 180 0 9 10 11 31 6 17 -3 39 -6 49 -6z m1070 -170 l12 -30
245 0 c227 0 244 -1 241 -17 -3 -17 -24 -18 -248 -21 l-245 -2 -28 50 c-16 27
-25 55 -22 60 9 15 30 -3 45 -40z m-1490 -410 c0 -137 -4 -250 -8 -250 -5 0
-46 14 -93 31 -188 68 -417 211 -573 358 -55 52 -102 99 -104 103 -2 5 172 8
387 8 l391 0 0 -250z m1040 35 l0 -215 -485 0 -485 0 0 215 0 215 485 0 485 0
0 -215z m805 154 c-111 -112 -269 -230 -435 -322 -66 -36 -213 -98 -262 -111
l-28 -6 0 250 0 250 392 0 392 0 -59 -61z m-1638 -425 c5 -15 7 -15 15 0 5 9
20 16 33 16 29 0 30 -3 9 -35 -16 -24 -15 -27 21 -74 l38 -50 39 50 40 49 -22
27 -22 28 22 3 c11 2 28 -2 37 -10 13 -10 17 -10 20 0 3 6 18 12 34 12 l30 0
-22 -29 -22 -29 21 -29 c11 -15 30 -37 42 -48 22 -19 22 -19 41 5 53 66 53 67
29 100 l-21 30 28 0 c16 0 35 -6 42 -12 11 -10 14 -10 18 0 3 6 16 12 30 12
l24 0 -20 -29 -20 -28 36 -47 c19 -25 39 -46 43 -46 4 0 23 21 43 46 l36 46
-25 26 -24 27 27 3 c16 2 32 -3 39 -12 10 -15 12 -15 18 -1 6 16 56 22 56 6 0
-5 -7 -14 -15 -21 -22 -19 -18 -37 17 -81 23 -28 37 -38 50 -33 16 5 18 -1 18
-45 0 -51 -6 -61 -27 -40 -7 7 -19 -1 -42 -29 -37 -48 -38 -56 -6 -94 26 -31
30 -45 16 -66 -6 -10 -17 -3 -44 27 l-36 40 -41 -45 -41 -45 36 -43 c33 -41
34 -45 19 -60 -15 -15 -18 -14 -46 21 -16 21 -31 39 -33 41 -1 2 -19 -17 -40
-42 l-37 -45 22 -31 c18 -25 20 -33 9 -46 -11 -13 -15 -12 -39 11 l-26 25 -37
-49 c-46 -60 -63 -59 -124 8 -39 42 -44 44 -56 29 -9 -11 -18 -14 -27 -8 -12
7 -12 13 -1 34 13 23 11 28 -24 71 l-38 46 -23 -28 c-17 -22 -25 -25 -35 -16
-12 12 -9 25 16 59 15 21 14 24 -24 68 l-40 46 -20 -28 c-17 -23 -22 -25 -31
-12 -14 22 -12 34 9 57 19 20 18 21 -15 63 -32 40 -43 70 -27 70 4 0 24 -19
45 -42 l37 -43 21 25 c56 67 56 66 19 115 -19 24 -37 45 -40 45 -4 0 -23 -18
-43 -40 -20 -22 -38 -40 -41 -40 -15 0 -1 53 21 80 24 28 26 33 13 58 -7 15
-15 30 -17 35 -2 4 8 7 22 7 15 0 29 -7 33 -16z"/>
<path d="M2640 3868 c0 -53 -4 -88 -10 -88 -6 0 -42 16 -80 35 -38 19 -72 35
-75 35 -2 0 10 -20 27 -45 29 -41 35 -45 75 -45 24 0 43 -3 43 -7 -1 -5 -29
-26 -62 -48 -51 -33 -58 -41 -40 -43 32 -5 73 19 99 57 l23 34 1 -94 1 -94 29
60 29 59 42 -2 c24 -2 52 -5 63 -8 11 -3 -12 13 -52 35 -86 49 -96 61 -51 62
27 0 39 8 70 49 l37 48 -72 -44 c-39 -24 -75 -44 -79 -44 -4 0 -1 18 8 40 16
38 15 43 -4 88 l-21 47 -1 -87z"/>
<path d="M3755 3230 c-3 -5 -2 -10 4 -10 5 0 13 5 16 10 3 6 2 10 -4 10 -5 0
-13 -4 -16 -10z"/>
<path d="M3738 3133 c7 -3 16 -2 19 1 4 3 -2 6 -13 5 -11 0 -14 -3 -6 -6z"/>
<path d="M3508 3074 c12 -8 22 -24 22 -35 0 -10 4 -19 9 -19 6 0 6 12 0 32 -5
18 -9 34 -9 35 0 2 -10 3 -22 3 l-22 0 22 -16z"/>
<path d="M3470 3020 c0 -5 5 -10 10 -10 6 0 10 5 10 10 0 6 -4 10 -10 10 -5 0
-10 -4 -10 -10z"/>
<path d="M3420 3015 c0 -3 9 -14 20 -25 13 -13 20 -15 20 -7 0 7 -5 18 -12 25
-12 12 -28 16 -28 7z"/>
<path d="M3369 1621 c10 -19 9 -21 -12 -21 -29 0 -50 -22 -45 -47 5 -26 44
-29 58 -4 6 12 7 21 1 21 -5 0 -12 -8 -15 -17 -5 -13 -9 -14 -19 -4 -9 10 -8
15 7 27 11 8 26 14 34 14 17 0 12 42 -6 48 -11 3 -12 0 -3 -17z"/>
<path d="M1561 2934 c0 -11 3 -14 6 -6 3 7 2 16 -1 19 -3 4 -6 -2 -5 -13z"/>
<path d="M1280 2640 c0 -5 4 -10 9 -10 6 0 13 5 16 10 3 6 -1 10 -9 10 -9 0
-16 -4 -16 -10z"/>
<path d="M2210 3265 c0 -8 2 -15 4 -15 2 0 6 7 10 15 3 8 1 15 -4 15 -6 0 -10
-7 -10 -15z"/>
<path d="M2278 3268 c9 -9 15 -9 24 0 9 9 7 12 -12 12 -19 0 -21 -3 -12 -12z"/>
<path d="M2330 3236 c0 -10 9 -20 20 -23 12 -3 28 -19 36 -35 8 -16 19 -26 25
-22 7 4 2 15 -10 28 -12 12 -21 28 -21 35 0 7 -5 9 -12 5 -6 -4 -17 1 -25 11
-12 18 -13 18 -13 1z"/>
<path d="M2201 3206 c-1 -25 47 -96 65 -96 7 0 -2 16 -19 36 -18 19 -35 45
-39 57 -5 20 -6 20 -7 3z"/>
<path d="M1467 3253 c6 -15 29 -18 37 -4 3 5 -5 11 -18 13 -17 4 -23 1 -19 -9z"/>
<path d="M1498 3193 c7 -3 16 -2 19 1 4 3 -2 6 -13 5 -11 0 -14 -3 -6 -6z"/>
<path d="M1488 3163 c6 -2 18 -2 25 0 6 3 1 5 -13 5 -14 0 -19 -2 -12 -5z"/>
<path d="M2540 2820 c0 -5 5 -10 11 -10 5 0 7 5 4 10 -3 6 -8 10 -11 10 -2 0
-4 -4 -4 -10z"/>
<path d="M2434 2450 c22 -122 27 -193 25 -416 -2 -225 0 -256 15 -279 22 -33
30 -27 16 11 -7 18 -11 107 -11 234 1 232 -11 393 -34 442 -12 26 -14 28 -11
8z"/>
<path d="M3001 2956 c0 -11 -11 -30 -23 -43 -19 -20 -20 -27 -10 -43 7 -11 12
-29 12 -40 0 -11 5 -20 10 -20 18 0 23 29 10 60 -10 23 -10 33 0 44 6 8 10 25
7 38 -3 18 -5 19 -6 4z"/>
<path d="M3036 2917 c-16 -12 -16 -13 3 -14 10 -1 22 5 25 13 7 17 -5 18 -28
1z"/>
<path d="M3120 2813 c0 -10 4 -14 8 -8 4 6 11 13 16 18 5 4 2 7 -7 7 -10 0
-17 -8 -17 -17z"/>
<path d="M2945 2750 c-3 -5 -1 -10 4 -10 6 0 11 5 11 10 0 6 -2 10 -4 10 -3 0
-8 -4 -11 -10z"/>
<path d="M1251 2274 c0 -11 3 -14 6 -6 3 7 2 16 -1 19 -3 4 -6 -2 -5 -13z"/>
<path d="M1434 1209 c165 -151 356 -270 564 -353 l62 -25 0 196 0 196 -23 -44
c-13 -24 -39 -54 -58 -67 -19 -13 -35 -26 -36 -30 -2 -4 11 -15 27 -24 37 -21
69 -88 70 -142 l0 -38 -37 7 c-84 15 -156 76 -169 142 l-6 30 -38 -13 c-73
-25 -192 27 -281 123 -39 43 -41 46 -23 57 10 6 60 11 109 11 78 -1 97 -4 142
-28 28 -14 60 -37 70 -51 l19 -24 13 29 c23 52 67 74 148 74 52 0 73 4 73 13
0 9 -75 12 -341 12 l-341 0 56 -51z"/>
<path d="M1918 1193 c-29 -18 -66 -78 -56 -88 18 -18 148 66 148 95 0 16 -62
11 -92 -7z"/>
<path d="M1571 1164 c18 -19 62 -49 97 -66 58 -29 65 -30 103 -19 l40 12 -22
31 c-33 46 -110 78 -188 78 l-65 0 35 -36z"/>
<path d="M1860 1053 c1 -30 50 -91 90 -111 l45 -23 3 26 c6 48 -38 92 -110
109 -16 3 -28 3 -28 -1z"/>
<path d="M2342 1210 c-1 -14 -10 -42 -20 -62 -11 -20 -16 -42 -12 -50 4 -7 10
-25 14 -40 6 -26 4 -28 -23 -28 -28 0 -29 1 -24 40 5 35 2 43 -26 69 -17 16
-31 28 -31 26 0 -1 7 -19 15 -38 8 -20 15 -57 15 -81 l0 -45 33 7 c17 3 43 7
57 7 14 0 40 -4 58 -7 l32 -7 0 52 c1 28 7 63 15 77 23 40 17 46 -16 14 -26
-25 -30 -35 -27 -71 3 -41 2 -43 -25 -43 -24 0 -28 3 -22 18 26 64 27 73 12
90 -9 9 -17 35 -20 57 -2 22 -4 29 -5 15z"/>
<path d="M2651 1202 c-1 -18 -7 -45 -15 -60 -12 -23 -12 -34 -1 -64 14 -42 11
-48 -21 -48 -20 0 -22 4 -17 40 5 35 2 43 -27 70 -18 16 -33 30 -35 30 -2 0 6
-17 16 -37 11 -21 19 -58 19 -85 0 -48 0 -48 28 -41 35 10 79 10 115 0 26 -7
27 -6 27 28 0 19 9 58 20 87 l19 51 -35 -34 c-32 -30 -35 -38 -30 -71 6 -36 5
-38 -20 -38 -22 0 -24 3 -17 23 11 31 8 74 -10 132 -15 46 -16 48 -16 17z"/>
<path d="M2971 1195 c0 -17 -8 -41 -16 -53 -13 -17 -14 -29 -6 -59 15 -52 14
-53 -15 -53 -25 0 -26 2 -20 35 6 31 3 39 -33 77 l-40 43 24 -49 c15 -29 25
-67 25 -92 l0 -42 42 10 c39 8 60 7 111 -8 14 -5 17 1 17 39 0 26 10 63 25 93
l24 49 -39 -42 c-35 -36 -38 -45 -33 -77 5 -34 4 -36 -21 -36 -29 0 -31 4 -15
49 9 26 8 40 -4 69 -9 20 -18 46 -20 57 -3 13 -5 9 -6 -10z"/>
<path d="M2938 992 c-44 -4 -70 -28 -42 -39 11 -5 46 -8 79 -8 74 0 102 9 86
29 -13 15 -65 23 -123 18z"/>
<path d="M2260 980 c-12 -7 -12 -12 -2 -22 17 -17 146 -17 164 0 21 21 -8 32
-82 32 -36 0 -72 -5 -80 -10z"/>
<path d="M2574 979 c-13 -22 18 -34 86 -34 73 0 86 5 77 30 -5 12 -23 15 -81
15 -43 0 -78 -5 -82 -11z"/>
<path d="M3260 1247 c0 -9 12 -11 40 -9 22 2 56 1 75 -2 38 -8 105 -60 105
-82 0 -21 16 -17 38 11 28 35 100 65 174 71 62 6 148 -9 148 -25 0 -16 -81
-92 -134 -126 -71 -45 -127 -58 -178 -41 l-38 14 -10 -38 c-19 -70 -144 -156
-197 -136 -37 15 20 154 72 178 25 11 34 28 16 28 -16 0 -73 52 -92 85 -19 30
-19 30 -19 -152 0 -101 4 -183 9 -183 39 0 296 130 407 205 68 47 220 171 244
200 11 13 -27 15 -324 15 -266 0 -336 -3 -336 -13z"/>
<path d="M3309 1192 c16 -29 72 -71 112 -82 41 -12 44 -9 26 27 -24 45 -53 65
-103 71 -45 5 -46 4 -35 -16z"/>
<path d="M3624 1189 c-17 -5 -51 -27 -75 -49 -43 -39 -44 -40 -24 -56 40 -31
132 2 220 80 l40 35 -65 0 c-36 -1 -79 -5 -96 -10z"/>
<path d="M3393 1040 c-43 -19 -83 -69 -83 -102 0 -23 7 -22 55 5 39 22 85 78
85 103 0 18 -7 17 -57 -6z"/>
<path d="M2491 680 c-36 -45 -35 -58 10 -110 l30 -35 34 40 c19 22 34 46 35
53 0 14 -59 92 -70 92 -4 0 -21 -18 -39 -40z"/>
<path d="M2701 681 c-17 -21 -31 -43 -31 -48 0 -12 62 -93 71 -93 4 0 23 20
42 44 l36 44 -36 46 c-19 25 -39 46 -43 46 -5 0 -22 -18 -39 -39z"/>
<path d="M2913 680 c-18 -21 -33 -42 -33 -47 0 -4 18 -27 40 -51 l39 -42 35
46 36 47 -33 40 c-19 23 -38 42 -43 44 -5 1 -24 -15 -41 -37z"/>
<path d="M2807 550 l-38 -50 37 -45 c20 -25 38 -45 40 -45 1 0 19 20 40 45 40
50 40 50 -18 117 l-23 27 -38 -49z"/>
<path d="M2388 553 c-16 -20 -28 -41 -28 -47 0 -6 17 -31 38 -55 l37 -43 32
45 32 44 -36 47 c-19 25 -38 46 -42 46 -3 -1 -18 -17 -33 -37z"/>
<path d="M2597 551 c-20 -22 -37 -44 -37 -47 0 -9 72 -94 79 -94 8 0 71 80 71
91 0 3 -17 26 -38 49 l-37 42 -38 -41z"/>
<path d="M2492 421 c-18 -22 -32 -44 -32 -49 0 -11 62 -92 71 -92 3 0 23 21
43 46 l36 47 -37 41 c-20 23 -40 42 -43 44 -3 1 -21 -15 -38 -37z"/>
<path d="M2699 417 l-37 -43 42 -48 41 -48 33 40 c17 23 32 46 32 52 0 12 -61
90 -70 89 -3 0 -21 -19 -41 -42z"/>
<path d="M2592 285 l-34 -44 37 -46 c21 -25 39 -45 40 -45 1 0 19 20 40 45
l37 46 -37 44 c-20 25 -39 45 -43 45 -4 0 -22 -21 -40 -45z"/>
<path d="M3240 4338 c-115 -121 -171 -189 -164 -199 3 -6 12 -5 21 3 12 10 17
9 28 -5 7 -10 19 -15 29 -11 21 8 33 -23 18 -47 -7 -10 -12 -26 -12 -36 0 -13
6 -11 30 12 33 32 40 64 13 61 -16 -1 -18 8 -18 64 0 55 3 65 18 68 12 2 20
-4 24 -16 3 -11 13 -22 24 -25 22 -6 25 -39 5 -56 -8 -7 -12 -20 -9 -31 4 -16
9 -17 29 -8 18 9 24 19 24 44 0 19 -6 34 -15 38 -18 7 -20 52 -2 63 7 4 13 24
13 43 -1 31 2 35 26 38 31 4 46 -25 29 -57 -8 -14 -7 -20 4 -25 20 -7 20 -66
0 -66 -21 0 -21 -66 1 -74 31 -12 35 -6 28 39 -6 44 -2 51 29 46 4 0 7 8 7 18
0 25 17 36 34 22 9 -8 13 -32 12 -69 -1 -54 -2 -57 -26 -57 -36 0 -37 -29 -1
-67 23 -24 31 -29 31 -16 0 9 -4 20 -10 23 -5 3 -10 15 -10 26 0 18 10 23 38
20 6 -1 12 3 12 10 0 7 10 9 30 6 29 -6 30 -5 30 30 0 33 -11 47 -117 155 -64
65 -120 117 -123 117 -3 -1 -39 -37 -80 -81z"/>
<path d="M1365 4300 c-3 -5 -25 -10 -49 -10 l-43 0 -16 -57 -16 -58 38 -39
c37 -37 40 -38 75 -26 24 8 36 18 36 30 0 10 5 22 11 25 12 8 61 -34 54 -45
-2 -4 -24 -13 -49 -20 -44 -12 -56 -27 -56 -73 0 -16 2 -16 23 -3 12 8 41 20
63 26 32 10 45 21 58 47 22 46 21 52 -17 97 -31 36 -36 38 -70 32 -30 -6 -37
-11 -37 -30 0 -36 -29 -41 -61 -10 -15 14 -25 33 -22 40 6 17 44 19 60 3 13
-13 18 -5 27 44 7 36 3 47 -9 27z"/>
<path d="M3898 4282 c-21 -3 -28 -9 -28 -25 0 -34 13 -46 43 -40 19 4 27 11
27 27 0 31 -12 41 -42 38z"/>
<path d="M2270 4054 c0 -161 0 -160 50 -62 30 58 39 111 20 123 -5 3 -10 -1
-10 -10 0 -21 -30 -31 -41 -14 -12 20 -11 36 5 51 11 12 11 18 -5 37 -19 23
-19 21 -19 -125z"/>
<path d="M3997 4130 c-36 -39 -37 -41 -22 -69 8 -17 25 -31 37 -33 29 -4 29
-26 0 -46 -22 -14 -23 -13 -39 26 -13 35 -22 43 -50 48 -21 4 -39 2 -46 -5 -8
-8 -7 -11 5 -11 9 0 22 -18 33 -46 13 -35 25 -49 51 -60 47 -20 60 -18 100 14
47 37 46 102 -1 102 -13 0 -27 5 -30 10 -7 12 31 70 46 70 16 0 23 -32 10 -51
-6 -11 -8 -19 -4 -19 5 -1 27 -5 51 -9 44 -9 53 -2 27 19 -8 7 -15 27 -15 45
0 30 -2 33 -43 38 -24 3 -49 9 -57 12 -9 3 -30 -11 -53 -35z"/>
<path d="M3773 4132 c-6 -4 -9 -19 -6 -36 5 -25 9 -27 36 -22 38 8 36 6 30 39
-5 27 -33 36 -60 19z"/>
<path d="M1002 4117 c-6 -7 -14 -32 -18 -55 -6 -41 -5 -43 41 -85 27 -23 63
-53 81 -67 18 -14 55 -45 83 -68 l51 -44 0 34 c0 31 -10 43 -107 128 -60 51
-109 97 -111 102 -2 4 8 8 22 8 22 0 26 4 26 30 0 26 -3 30 -29 30 -16 0 -33
-6 -39 -13z"/>
<path d="M1110 4100 c0 -22 5 -30 18 -30 21 0 132 -107 132 -127 0 -14 28 -17
47 -5 7 4 16 23 19 41 6 30 5 33 -13 27 -15 -5 -34 9 -82 59 -49 51 -69 65
-92 65 -26 0 -29 -4 -29 -30z"/>
<path d="M3080 4009 l0 -92 30 41 c17 23 30 50 30 59 -1 17 -1 17 -11 1 -18
-31 -32 -21 -27 20 4 24 1 42 -8 50 -12 11 -14 -2 -14 -79z"/>
<path d="M1720 3999 l0 -92 30 42 c33 45 33 62 -1 54 -20 -6 -21 -3 -14 35 4
25 2 42 -4 47 -8 4 -11 -23 -11 -86z"/>
<path d="M4234 3958 c3 -13 6 -26 6 -30 0 -5 14 -8 30 -8 27 0 30 3 30 30 0
28 -3 30 -36 30 -33 0 -36 -2 -30 -22z"/>
<path d="M913 3918 c-36 -18 -42 -25 -37 -45 5 -19 1 -25 -25 -34 -22 -8 -30
-16 -27 -26 4 -8 9 -26 12 -39 5 -18 11 -23 24 -19 29 9 140 -67 140 -97 0
-17 2 -17 35 -1 30 14 34 20 28 42 -8 36 -13 42 -24 35 -14 -8 -139 75 -139
93 0 14 37 52 52 53 4 0 9 -8 12 -17 3 -10 29 -31 57 -47 28 -16 54 -37 56
-47 6 -23 8 -23 44 -2 23 13 29 24 27 43 -2 20 -8 24 -26 22 -29 -4 -132 62
-139 89 -7 24 -17 23 -70 -3z"/>
<path d="M4094 3838 c3 -13 6 -26 6 -30 0 -5 14 -8 30 -8 27 0 30 3 30 30 0
28 -3 30 -36 30 -33 0 -36 -2 -30 -22z"/>
<path d="M4360 3835 c0 -20 -128 -115 -156 -115 -29 0 -29 0 -1 -54 16 -32 29
-46 47 -48 18 -2 26 -10 28 -28 5 -35 20 -50 49 -50 18 0 24 4 20 14 -6 15
119 126 140 126 15 0 23 54 10 62 -21 13 -57 9 -57 -6 0 -20 -116 -108 -138
-104 -10 2 -18 14 -19 28 -2 20 9 34 58 70 82 60 89 67 89 96 0 21 -5 24 -35
24 -24 0 -35 -5 -35 -15z"/>
<path d="M733 3712 c-9 -6 -9 -17 2 -47 8 -22 14 -47 15 -56 0 -9 29 -29 70
-49 39 -19 70 -40 70 -47 0 -24 25 -14 63 25 34 34 37 42 28 65 -13 35 -25 34
-51 -3 -30 -42 -50 -25 -50 40 0 26 -6 52 -12 57 -17 13 -120 25 -135 15z
m105 -63 c25 -10 30 -39 7 -39 -23 0 -95 39 -95 51 0 11 42 5 88 -12z"/>
<path d="M4510 3610 c-11 -21 -138 -90 -165 -90 -11 0 -13 -8 -8 -32 3 -18 6
-33 7 -34 1 -1 16 -4 34 -7 27 -6 32 -4 32 12 0 29 103 84 141 76 25 -6 29
-10 23 -28 -3 -12 -7 -22 -8 -22 0 0 -38 -18 -83 -40 -75 -37 -82 -42 -82 -71
-1 -25 5 -33 34 -47 l35 -17 0 29 c0 23 8 32 49 54 27 15 58 27 70 27 23 0 38
28 48 86 5 28 2 31 -28 40 -30 8 -34 14 -37 47 -3 32 -7 37 -27 37 -14 0 -29
-9 -35 -20z"/>
<path d="M665 3538 c-11 -6 -21 -12 -23 -13 -1 -1 3 -14 9 -29 9 -19 17 -25
31 -21 22 8 135 -42 152 -66 11 -17 14 -17 34 -3 22 15 27 38 16 68 -5 12 -10
14 -19 6 -8 -7 -24 -5 -51 6 -70 28 -103 44 -109 54 -8 13 -15 12 -40 -2z"/>
<path d="M602 3412 c-29 -14 -32 -19 -26 -46 5 -23 2 -33 -17 -47 -20 -15 -22
-21 -13 -46 8 -23 16 -28 44 -29 38 -2 141 -40 151 -56 10 -16 49 9 49 31 0
25 -22 41 -46 35 -11 -3 -46 6 -77 20 -47 20 -57 29 -57 49 0 27 26 43 44 28
6 -5 30 -15 53 -21 23 -7 52 -22 63 -32 21 -19 22 -19 43 -2 12 11 23 19 25
20 5 3 -21 54 -28 54 -3 0 -11 -5 -17 -11 -8 -8 -19 -6 -41 5 -17 9 -38 16
-46 16 -8 0 -23 11 -34 25 -23 29 -26 29 -70 7z"/>
<path d="M4647 3380 c-4 -15 -145 -80 -174 -80 -8 0 -13 -13 -13 -30 0 -24 6
-33 26 -40 33 -13 34 -13 34 5 0 14 138 85 166 85 15 0 29 43 20 58 -11 19
-54 20 -59 2z"/>
<path d="M4690 3267 c0 -14 -121 -67 -153 -67 -14 0 -17 -10 -17 -54 l0 -53
46 -18 c42 -16 50 -16 106 -2 33 9 66 13 73 11 8 -3 19 12 29 42 9 26 15 49
13 51 -2 1 -17 6 -34 9 -27 5 -32 3 -35 -17 -2 -18 -17 -28 -63 -46 -77 -30
-87 -30 -83 4 3 24 12 32 73 56 38 15 74 26 81 23 6 -2 16 11 21 29 9 27 8 35
-4 39 -26 10 -53 6 -53 -7z"/>
<path d="M540 3193 c0 -6 -18 -23 -39 -38 l-40 -27 27 -54 c25 -51 28 -54 55
-48 37 8 111 -13 133 -37 16 -18 18 -17 46 22 l29 40 -17 46 c-10 25 -22 46
-28 48 -6 1 -36 8 -66 15 -30 7 -65 20 -77 28 -13 8 -23 10 -23 5z m115 -92
c55 -17 55 -18 36 -35 -19 -18 -23 -18 -88 -1 -37 9 -74 19 -82 21 -9 3 -6 10
10 23 25 21 31 21 124 -8z"/>
<path d="M4700 3034 c-25 -8 -61 -15 -81 -15 -34 0 -37 -3 -43 -37 -11 -70 -8
-88 19 -100 36 -17 35 -18 35 38 0 42 3 50 18 50 10 0 33 -16 52 -35 19 -19
40 -35 48 -35 17 0 112 68 112 80 0 11 -88 70 -103 69 -7 0 -32 -7 -57 -15z
m104 -32 c3 -5 -13 -19 -35 -32 -37 -20 -42 -21 -57 -7 -14 15 -13 17 9 25 13
5 31 12 39 15 23 8 38 8 44 -1z"/>
<path d="M384 2964 c3 -9 6 -20 6 -24 0 -11 41 -22 155 -45 56 -11 84 -22 94
-36 14 -19 14 -19 32 8 22 33 23 42 4 67 -12 15 -17 17 -29 7 -12 -10 -37 -8
-126 13 -130 31 -144 32 -136 10z"/>
<path d="M4797 2856 c-7 -18 -100 -40 -142 -33 -33 5 -33 5 -40 -41 -6 -41 -4
-48 17 -65 l23 -19 5 33 c6 37 24 46 96 48 50 1 61 -8 34 -29 -21 -16 -21 -17
-3 -38 l18 -22 42 28 c38 24 57 52 36 52 -5 0 -14 4 -22 9 -11 7 -10 13 4 34
16 25 16 26 -14 41 -37 20 -47 20 -54 2z"/>
<path d="M440 2838 c0 -7 -14 -26 -31 -44 l-31 -32 32 -43 31 -44 84 -1 c47 0
90 -5 97 -12 12 -9 18 -3 35 32 l21 43 -28 43 -28 42 -72 3 c-40 2 -77 8 -83
14 -14 14 -27 14 -27 -1z m178 -73 c2 -2 1 -13 -3 -26 -7 -21 -11 -21 -88 -15
-45 4 -83 9 -86 11 -2 3 4 14 15 26 17 19 26 20 89 14 38 -4 72 -8 73 -10z"/>
<path d="M4829 2670 c-9 -5 -64 -11 -122 -12 -59 -2 -107 -5 -107 -8 0 -3 9
-16 19 -29 l19 -25 133 11 c74 6 138 9 142 6 4 -3 3 -11 -3 -18 -9 -11 -6 -17
13 -30 21 -14 29 -14 46 -3 12 7 21 16 21 20 0 10 -119 98 -133 98 -6 0 -19
-5 -28 -10z"/>
<path d="M392 2602 c-17 -15 -32 -30 -32 -33 0 -3 17 -23 39 -46 l38 -42 102
-3 c98 -3 101 -2 101 19 0 12 5 34 10 49 10 25 7 31 -20 58 l-30 31 0 -42 c0
-32 -5 -45 -19 -53 -21 -10 -151 -14 -151 -4 0 3 10 14 23 24 l22 19 -25 25
-25 26 -33 -28z"/>
<path d="M4855 2549 c-5 -7 -44 -10 -107 -8 -88 3 -101 1 -110 -15 -7 -13 -6
-25 3 -42 13 -25 35 -32 41 -13 3 8 40 13 107 14 78 2 107 6 119 18 14 15 14
18 -3 37 -20 22 -40 26 -50 9z"/>
<path d="M4653 2395 c-16 -34 -16 -36 5 -57 l22 -22 16 22 c12 18 25 22 70 22
l54 0 0 -35 c0 -19 4 -35 9 -35 5 0 16 -3 24 -6 10 -4 16 5 21 30 7 35 8 36
52 36 l45 0 -18 25 c-10 13 -24 25 -32 25 -8 0 -30 6 -49 13 -28 10 -36 10
-39 0 -7 -19 -117 -17 -133 2 -19 23 -29 18 -47 -20z"/>
<path d="M572 2361 l-22 -30 32 -22 31 -23 24 30 23 29 -27 22 c-16 13 -31 23
-34 23 -3 0 -15 -13 -27 -29z"/>
<path d="M393 2330 l-23 -28 33 -21 32 -21 22 28 c13 15 23 29 23 32 0 6 -55
41 -62 39 -1 0 -13 -13 -25 -29z"/>
<path d="M4633 2236 c-20 -40 -20 -45 -5 -59 15 -15 14 -18 -6 -40 -27 -28
-27 -35 -2 -67 l20 -25 19 24 18 24 72 -17 73 -16 52 43 53 43 -33 40 c-20 23
-34 33 -34 24 0 -9 -12 -31 -28 -49 l-27 -33 -63 12 c-59 12 -63 14 -60 39 3
26 4 26 81 26 42 0 77 2 77 5 -1 3 -9 15 -19 28 -16 18 -29 22 -75 22 -30 0
-58 5 -61 10 -13 21 -32 9 -52 -34z"/>
<path d="M550 2181 c-34 -10 -49 -54 -27 -79 28 -30 21 -50 -19 -58 -47 -9
-60 6 -35 38 l20 25 -24 23 c-14 13 -26 22 -28 19 -2 -2 -12 -23 -22 -47 l-19
-43 41 -41 41 -41 47 13 c26 7 53 19 61 27 21 22 17 61 -8 74 l-22 12 24 19
c39 31 55 20 51 -35 -2 -35 2 -54 15 -68 30 -33 39 -22 41 48 3 61 0 70 -24
95 -27 29 -59 34 -113 19z"/>
<path d="M4590 2000 c-22 -48 -23 -51 -6 -69 18 -20 18 -19 40 5 20 24 23 24
74 14 57 -13 57 -12 41 -42 -10 -18 -8 -25 11 -40 31 -25 37 -23 45 13 8 37
22 43 69 31 20 -6 36 -8 36 -6 0 14 -34 54 -46 54 -7 0 -18 9 -24 19 -12 24
-50 37 -60 22 -9 -15 -130 17 -137 36 -9 23 -19 14 -43 -37z"/>
<path d="M670 1966 c0 -15 -154 -68 -174 -60 -10 4 -43 -45 -34 -50 33 -19 58
-24 65 -12 9 16 125 50 164 47 37 -2 48 46 16 71 -27 21 -37 22 -37 4z"/>
<path d="M4556 1846 c-29 -38 -32 -56 -14 -74 9 -9 17 -7 33 8 l22 21 59 -22
c32 -13 67 -29 77 -37 15 -13 21 -13 42 -2 14 7 25 17 25 22 0 21 -23 49 -36
44 -18 -7 -145 41 -160 60 -16 20 -18 18 -48 -20z"/>
<path d="M720 1829 c0 -20 -10 -28 -58 -47 -32 -12 -61 -22 -64 -22 -4 0 -9
14 -13 30 -6 25 -11 30 -37 30 -25 0 -29 -3 -23 -17 22 -58 19 -69 -25 -82
-57 -17 -40 -33 39 -37 49 -3 62 -1 70 14 5 9 36 28 70 41 50 20 63 22 76 11
21 -18 27 -8 27 41 -1 48 1 45 -35 54 -24 6 -27 4 -27 -16z"/>
<path d="M4520 1737 c0 -7 -18 -26 -40 -43 -37 -27 -40 -32 -40 -80 l0 -51 49
-22 c46 -22 49 -22 75 -6 19 13 24 23 20 40 -3 13 -1 26 5 30 14 8 81 -13 81
-25 0 -15 -37 -31 -54 -24 -18 7 -20 -5 -10 -55 6 -28 8 -30 23 -17 9 8 28 19
44 25 23 9 27 16 27 48 0 63 -9 79 -57 102 -46 22 -46 22 -72 3 -16 -12 -25
-28 -24 -41 3 -27 -18 -36 -48 -21 -22 12 -22 13 16 44 35 30 37 35 31 69 -6
35 -26 53 -26 24z"/>
<path d="M760 1696 c0 -22 -9 -28 -72 -48 l-73 -23 -22 -61 -21 -60 46 -15 47
-14 -3 51 -4 51 66 22 c70 23 86 22 86 -9 0 -13 -19 -30 -60 -52 -33 -18 -60
-36 -60 -40 0 -3 13 -9 28 -13 20 -4 44 2 78 19 33 16 58 23 74 19 19 -5 22
-3 17 11 -4 10 -7 33 -7 51 0 27 -5 34 -26 39 -24 6 -26 11 -21 41 5 31 3 35
-25 44 -44 15 -48 14 -48 -13z"/>
<path d="M880 1467 c0 -18 -12 -30 -52 -52 -49 -27 -52 -27 -65 -10 -7 11 -13
22 -13 27 0 12 -48 10 -55 -2 -3 -5 1 -20 9 -32 23 -33 20 -42 -21 -63 l-38
-18 31 -13 c25 -10 38 -10 77 3 26 8 47 21 47 28 0 19 90 67 123 67 23 -1 27
3 27 28 0 46 -10 60 -41 60 -24 0 -29 -4 -29 -23z"/>
<path d="M4373 1463 c-27 -5 -26 -2 -12 -42 9 -26 16 -32 33 -27 11 3 27 6 34
6 13 0 16 28 6 54 -6 16 -17 17 -61 9z"/>
<path d="M4522 1383 c-18 -4 -22 -9 -17 -26 4 -12 9 -30 11 -39 4 -13 11 -15
36 -7 40 11 41 12 33 48 -7 31 -13 34 -63 24z"/>
<path d="M953 1356 c5 -12 -11 -27 -61 -61 -37 -25 -72 -45 -78 -45 -16 0 -25
-53 -11 -62 22 -14 55 -8 60 11 4 18 102 81 142 91 24 7 32 42 13 58 -7 6 -26
14 -42 18 -25 6 -28 4 -23 -10z"/>
<path d="M4230 1318 l0 -46 110 -73 c107 -71 126 -89 95 -89 -10 0 -15 -10
-15 -28 0 -26 2 -28 35 -24 38 4 38 6 29 75 -7 46 -7 47 -110 112 -57 37 -112
78 -123 93 l-20 27 -1 -47z"/>
<path d="M954 1215 c-27 -19 -55 -35 -61 -35 -9 0 -13 -18 -13 -56 0 -54 0
-55 27 -52 22 2 29 9 33 32 3 19 23 42 60 72 30 24 58 44 62 44 4 0 11 -12 14
-26 8 -30 -29 -73 -96 -115 -30 -18 -40 -30 -40 -51 0 -23 4 -28 25 -28 14 0
28 7 31 15 6 16 126 121 146 127 20 7 -18 95 -45 102 -53 14 -94 6 -143 -29z"/>
<path d="M4158 1199 c-37 -19 -44 -32 -32 -63 4 -11 14 -13 33 -10 22 5 37 -1
67 -27 21 -18 41 -34 43 -36 2 -2 -4 -12 -13 -22 -20 -22 -14 -61 9 -61 7 0
23 12 34 26 l21 26 32 -27 33 -28 3 26 c4 36 -50 113 -70 101 -5 -3 -31 11
-58 32 -34 26 -50 45 -50 61 0 27 -3 27 -52 2z"/>
<path d="M1160 1085 c0 -13 -8 -29 -17 -34 -10 -5 -38 -30 -63 -55 -25 -25
-51 -46 -57 -46 -8 0 -13 -13 -13 -30 0 -28 3 -30 35 -30 23 0 35 5 35 13 0
19 125 137 144 137 13 0 15 6 10 28 -8 33 -3 28 -41 35 -30 6 -33 4 -33 -18z"/>
<path d="M4038 1066 c-27 -15 -38 -28 -38 -44 0 -17 -8 -26 -30 -33 -24 -9
-30 -17 -30 -40 0 -21 5 -29 18 -29 10 0 42 -25 72 -55 40 -40 62 -55 82 -55
24 0 28 4 28 30 0 18 -5 30 -13 30 -7 0 -37 25 -66 54 -46 47 -52 57 -41 70
21 27 44 18 100 -39 44 -44 61 -55 87 -55 30 0 33 3 33 30 0 21 -5 30 -16 30
-20 0 -116 85 -126 111 -9 23 -13 23 -60 -5z"/>
<path d="M1262 1001 l-24 -6 26 -24 c14 -14 26 -32 26 -40 0 -15 -83 -111 -95
-111 -3 0 -5 11 -5 24 0 16 -7 26 -22 30 -44 11 -48 8 -48 -44 l0 -50 58 0 57
0 72 76 71 76 -35 39 c-36 40 -41 42 -81 30z"/>
<path d="M3855 895 c-22 -8 -41 -15 -42 -15 -2 0 -3 -6 -3 -13 0 -7 -9 -30
-20 -51 -22 -43 -22 -40 39 -118 l44 -56 71 -7 c39 -4 74 -12 77 -17 4 -6 9 2
13 17 4 15 5 29 2 32 -2 3 -34 11 -69 19 -61 14 -68 19 -108 70 -23 30 -40 56
-38 57 2 2 16 8 31 15 26 11 30 9 70 -43 24 -30 49 -54 56 -54 6 -1 12 -9 12
-18 1 -14 4 -12 15 7 21 37 19 42 -35 104 -27 31 -50 64 -50 72 0 17 -14 17
-65 -1z"/>
<path d="M1473 833 c-24 -5 -28 -20 -17 -61 6 -20 11 -22 38 -16 41 8 45 13
34 52 -8 32 -12 33 -55 25z"/>
<path d="M3699 772 c-17 -2 -31 -12 -38 -28 -14 -32 -14 -34 7 -34 10 0 33
-25 56 -61 22 -34 46 -67 54 -75 22 -22 49 -17 54 11 3 14 1 25 -3 25 -13 0
-92 111 -98 139 -5 21 -11 25 -32 23z"/>
<path d="M1642 733 c-10 -4 -3 -16 22 -42 51 -52 42 -71 -33 -71 -31 0 -62 -5
-69 -12 -12 -12 -17 -119 -7 -130 3 -3 34 2 70 11 l64 16 30 68 c16 37 35 67
40 67 22 0 10 37 -23 68 -32 30 -62 38 -94 25z m26 -140 c-3 -5 -13 -27 -23
-50 -22 -53 -50 -59 -40 -10 12 62 16 67 42 67 13 0 23 -3 21 -7z"/>
<path d="M3530 674 c-13 -33 -13 -34 5 -34 8 0 33 -33 57 -72 23 -40 47 -76
53 -80 41 -30 68 22 30 58 -26 24 -75 115 -75 139 0 10 -10 15 -30 15 -24 0
-33 -6 -40 -26z"/>
<path d="M1382 679 c-41 -8 -41 -7 -35 -47 5 -31 7 -32 42 -26 20 4 38 8 40
10 2 2 -1 18 -5 37 -9 31 -11 33 -42 26z"/>
<path d="M1815 646 l-30 -13 32 -16 c17 -9 34 -21 37 -26 3 -5 -8 -40 -25 -78
-31 -67 -32 -68 -41 -39 -9 25 -14 27 -41 22 -17 -3 -32 -7 -33 -9 -6 -5 19
-87 25 -87 4 0 31 7 59 15 52 16 52 16 95 104 l42 89 -41 26 c-47 30 -40 29
-79 12z"/>
<path d="M3376 598 c-9 -34 -8 -35 26 -47 37 -13 34 -15 42 25 6 27 4 32 -16
38 -38 10 -45 7 -52 -16z"/>
<path d="M2070 585 c-14 -8 -34 -14 -45 -15 -16 0 -29 -23 -69 -125 -27 -69
-51 -125 -53 -125 -2 0 -8 12 -13 26 -7 18 -15 24 -26 20 -9 -3 -20 -6 -25 -6
-12 0 -11 -37 1 -61 13 -22 47 -25 93 -5 28 11 36 24 66 107 46 126 67 166 91
174 11 3 20 11 20 16 0 12 -10 11 -40 -6z"/>
<path d="M3460 454 c-14 -36 -13 -41 13 -48 38 -10 45 -7 55 23 10 28 8 30
-20 40 -40 14 -37 15 -48 -15z"/>
<path d="M2116 365 c-10 -8 -23 -16 -29 -18 -14 -4 20 -67 37 -67 8 0 24 9 37
19 23 19 23 21 7 48 -20 34 -28 36 -52 18z"/>
<path d="M16435 2928 c-3 -24 -5 -252 -3 -508 l3 -465 88 -3 87 -3 0 511 0
510 -84 0 -85 0 -6 -42z"/>
<path d="M7204 2865 l-1 -85 93 0 94 0 0 85 0 85 -92 0 -93 0 -1 -85z"/>
<path d="M10220 2865 l0 -85 95 0 95 0 0 85 0 85 -95 0 -95 0 0 -85z"/>
<path d="M11187 2943 c-2 -5 -3 -39 -3 -78 l1 -70 78 -3 77 -3 0 81 0 80 -74
0 c-41 0 -77 -3 -79 -7z"/>
<path d="M11465 2938 c-3 -8 -4 -43 -3 -78 l3 -65 75 0 75 0 0 75 0 75 -73 3
c-53 2 -74 -1 -77 -10z"/>
<path d="M15710 2870 l0 -81 78 3 77 3 0 75 0 75 -77 3 -78 3 0 -81z"/>
<path d="M15990 2870 l0 -80 75 0 75 0 0 80 0 80 -75 0 -75 0 0 -80z"/>
<path d="M5412 2523 l3 -368 34 -63 c62 -114 139 -154 313 -160 99 -4 127 -1
188 17 91 28 155 87 191 177 23 58 24 67 27 412 l3 352 -90 0 -90 0 -3 -327
-3 -328 -27 -56 c-35 -70 -81 -99 -161 -99 -67 0 -102 12 -140 48 -60 56 -61
66 -65 430 l-3 332 -90 0 -90 0 3 -367z"/>
<path d="M14716 2882 c-3 -5 -4 -216 -3 -468 l2 -459 98 -3 99 -3 -4 220 c-1
121 0 217 3 213 4 -4 73 -92 154 -197 81 -104 157 -200 169 -213 21 -21 28
-23 140 -20 l119 3 -193 240 c-106 132 -196 245 -201 251 -5 6 45 71 132 170
78 87 164 185 191 217 l50 57 -115 0 -115 0 -150 -177 c-83 -98 -159 -189
-169 -201 -18 -24 -19 -21 -18 175 l0 198 -92 3 c-50 1 -94 -1 -97 -6z"/>
<path d="M12008 2818 l-87 -29 -3 -72 -3 -72 -62 3 c-58 2 -63 1 -68 -21 -4
-13 -5 -43 -3 -68 l3 -44 67 -3 67 -3 3 -212 c3 -211 3 -212 31 -260 45 -75
127 -106 253 -92 l64 7 0 69 0 69 -54 0 c-44 0 -61 5 -83 24 l-28 24 -3 186
-4 186 81 0 81 0 0 71 0 70 -57 -1 c-112 -3 -102 -13 -105 98 l-3 99 -87 -29z"/>
<path d="M10710 2812 l-75 -27 -1 -70 0 -70 -67 3 -67 4 0 -71 0 -71 64 0 64
0 4 -202 c3 -179 6 -208 24 -248 28 -62 72 -96 140 -110 58 -12 179 -6 189 10
3 4 2 35 -1 69 l-7 61 -52 0 c-97 0 -113 36 -114 263 l-2 157 81 0 81 0 -3 68
-3 67 -50 1 c-27 1 -62 2 -77 3 l-28 1 0 95 c0 70 -3 95 -12 94 -7 0 -47 -12
-88 -27z"/>
<path d="M8551 2660 c-184 -39 -292 -214 -261 -427 19 -135 71 -212 178 -265
64 -32 72 -33 182 -33 85 0 131 5 178 19 l62 19 0 79 c0 43 -2 78 -4 78 -2 0
-26 -11 -53 -24 -96 -49 -195 -56 -268 -19 -56 29 -84 64 -99 126 l-6 27 235
0 235 0 6 26 c9 37 -12 177 -35 228 -27 62 -84 120 -139 144 -57 25 -151 34
-211 22z m155 -151 c44 -41 79 -138 51 -140 -6 0 -75 0 -152 0 l-140 1 3 32
c4 44 43 101 83 122 47 23 122 16 155 -15z"/>
<path d="M15849 2660 c-122 -21 -218 -100 -260 -212 -32 -86 -31 -216 2 -303
34 -90 114 -167 203 -194 222 -69 430 34 482 239 48 189 -39 384 -201 448 -60
24 -162 34 -226 22z m170 -158 c14 -10 37 -39 51 -63 22 -38 25 -56 25 -139 0
-79 -4 -102 -22 -136 -47 -87 -119 -120 -198 -89 -55 21 -90 61 -110 127 -54
181 51 358 194 327 19 -4 46 -16 60 -27z"/>
<path d="M6688 2645 c-27 -9 -66 -33 -89 -55 -23 -22 -44 -40 -46 -40 -1 0 -3
23 -3 50 l0 50 -85 0 -85 0 0 -350 0 -351 93 3 92 3 5 220 c5 236 9 253 63
304 34 31 102 39 145 17 61 -32 67 -55 70 -313 l4 -233 89 0 89 0 0 223 c0
122 -5 251 -11 287 -13 86 -48 144 -102 172 -54 27 -164 34 -229 13z"/>
<path d="M9402 2647 c-50 -10 -98 -54 -130 -118 l-21 -44 -1 83 0 82 -83 0
c-81 0 -84 -1 -81 -22 1 -13 3 -170 3 -350 l1 -328 90 0 90 0 0 183 c0 134 4
197 15 234 25 85 104 136 185 119 l30 -5 0 83 c0 84 0 84 -27 88 -16 2 -47 0
-71 -5z"/>
<path d="M9767 2649 c-151 -36 -225 -163 -166 -286 26 -53 53 -73 176 -126
103 -44 128 -70 114 -111 -4 -12 -23 -29 -42 -39 -44 -24 -145 -18 -211 11
l-46 20 -4 -70 c-2 -39 -1 -74 2 -78 5 -8 87 -25 160 -33 57 -7 157 11 210 38
108 55 146 171 93 283 -20 42 -83 84 -167 112 -88 29 -126 55 -126 84 0 58 97
87 210 62 36 -8 65 -13 66 -12 1 0 4 31 7 67 l6 66 -56 12 c-65 13 -171 13
-226 0z"/>
<path d="M11285 2654 c-11 -2 -46 -12 -77 -21 l-58 -16 0 -79 0 -80 34 21 c55
34 117 52 183 52 97 0 140 -32 156 -118 l7 -33 -103 0 c-225 0 -334 -63 -353
-203 -13 -96 53 -201 141 -226 106 -29 226 -4 285 59 l29 31 6 -46 7 -45 77 0
76 0 -3 237 c-3 285 -10 330 -60 386 -55 60 -108 80 -227 83 -55 2 -109 1
-120 -2z m241 -398 c3 -8 -1 -39 -10 -68 -15 -53 -48 -94 -93 -117 -50 -25
-140 -4 -163 38 -35 66 22 138 120 154 65 11 141 7 146 -7z"/>
<path d="M17130 2651 c-48 -15 -95 -44 -127 -79 l-33 -36 0 57 0 57 -86 0 -85
0 5 -77 c2 -43 5 -201 5 -350 l1 -273 89 0 90 0 3 218 c3 245 11 275 78 320
48 33 123 27 156 -12 37 -43 44 -90 44 -313 l0 -213 91 0 91 0 -4 268 c-3 264
-3 268 -29 323 -29 61 -63 91 -124 108 -45 12 -127 13 -165 2z"/>
<path d="M7210 2300 l0 -350 90 0 90 0 0 350 0 350 -90 0 -90 0 0 -350z"/>
<path d="M7502 2637 c2 -8 59 -166 128 -351 l125 -336 104 2 103 3 128 345
128 345 -86 3 c-47 2 -88 -1 -92 -5 -8 -8 -140 -406 -161 -483 l-12 -45 -23
85 c-13 47 -52 166 -87 265 l-64 180 -97 3 c-80 2 -97 0 -94 -11z"/>
<path d="M10220 2300 l0 -351 93 3 92 3 0 345 0 345 -92 3 -93 3 0 -351z"/>
<path d="M12760 2585 l0 -65 175 0 174 0 -179 -214 -180 -215 0 -70 0 -71 290
0 290 0 0 70 0 70 -186 -5 -187 -4 30 32 c17 18 99 114 182 214 l151 183 0 70
0 70 -280 0 -280 0 0 -65z"/>
<path d="M13472 2383 c3 -266 3 -268 30 -325 38 -81 84 -110 189 -116 97 -6
154 13 210 69 l39 39 0 -50 0 -50 85 0 84 0 -2 348 -2 347 -92 3 -93 3 0 -209
c0 -238 -9 -285 -64 -327 -45 -35 -113 -35 -154 0 -44 37 -52 87 -52 324 l0
211 -91 0 -91 0 4 -267z"/>
</g>
</svg>
