<?xml version="1.0" standalone="no"?>
<!DOCTYPE svg PUBLIC "-//W3C//DTD SVG 20010904//EN"
 "http://www.w3.org/TR/2001/REC-SVG-20010904/DTD/svg10.dtd">
<svg version="1.0" xmlns="http://www.w3.org/2000/svg"
 width="600.000000pt" height="314.000000pt" viewBox="0 0 600.000000 314.000000"
 preserveAspectRatio="xMidYMid meet">

<g transform="translate(0.000000,314.000000) scale(0.100000,-0.100000)"
fill="#000000" stroke="none">
<path d="M710 2106 c0 -9 5 -16 10 -16 6 0 10 4 10 9 0 6 -4 13 -10 16 -5 3
-10 -1 -10 -9z"/>
<path d="M800 2110 c0 -5 5 -10 10 -10 6 0 10 5 10 10 0 6 -4 10 -10 10 -5 0
-10 -4 -10 -10z"/>
<path d="M890 2104 c0 -8 5 -12 10 -9 6 4 8 11 5 16 -9 14 -15 11 -15 -7z"/>
<path d="M645 2090 c-3 -5 1 -10 10 -10 9 0 13 5 10 10 -3 6 -8 10 -10 10 -2
0 -7 -4 -10 -10z"/>
<path d="M955 2091 c-3 -5 -1 -12 5 -16 5 -3 10 1 10 9 0 18 -6 21 -15 7z"/>
<path d="M730 2055 c0 -14 5 -25 10 -25 6 0 10 9 10 19 0 11 6 22 13 24 6 3 2
6 -10 6 -18 1 -23 -5 -23 -24z"/>
<path d="M858 2073 c6 -2 12 -13 12 -24 0 -10 5 -19 10 -19 6 0 10 11 10 25 0
19 -5 25 -22 24 -13 0 -17 -3 -10 -6z"/>
<path d="M590 2060 c0 -5 5 -10 10 -10 6 0 10 5 10 10 0 6 -4 10 -10 10 -5 0
-10 -4 -10 -10z"/>
<path d="M793 2044 c-10 -22 -10 -24 3 -14 11 10 17 10 30 0 13 -12 14 -10 3
13 -15 33 -21 34 -36 1z"/>
<path d="M1010 2056 c0 -9 5 -16 10 -16 6 0 10 4 10 9 0 6 -4 13 -10 16 -5 3
-10 -1 -10 -9z"/>
<path d="M640 2045 c-7 -9 -8 -15 -2 -15 5 0 12 7 16 15 3 8 4 15 2 15 -2 0
-9 -7 -16 -15z"/>
<path d="M967 2040 c3 -11 9 -17 15 -14 5 3 4 12 -3 20 -16 19 -18 18 -12 -6z"/>
<path d="M510 2006 c4 -4 16 -4 26 2 16 9 14 10 -8 9 -15 -1 -23 -6 -18 -11z"/>
<path d="M690 2010 c0 -5 5 -10 11 -10 5 0 7 5 4 10 -3 6 -8 10 -11 10 -2 0
-4 -4 -4 -10z"/>
<path d="M915 2010 c-3 -5 -1 -10 4 -10 6 0 11 5 11 10 0 6 -2 10 -4 10 -3 0
-8 -4 -11 -10z"/>
<path d="M772 1985 c-11 -13 -25 -38 -32 -55 -16 -39 -35 -33 -34 11 1 19 0
28 -3 21 -4 -10 -11 -8 -28 8 l-24 22 -20 -33 c-12 -19 -21 -40 -21 -46 0 -7
-4 -13 -9 -13 -6 0 -11 19 -13 42 l-3 41 -57 -52 c-139 -127 -173 -324 -88
-497 47 -96 155 -185 254 -210 21 -5 26 -3 26 13 0 10 -5 24 -11 30 -5 5 -9
30 -7 54 l3 44 108 3 107 3 0 -55 c0 -40 -4 -55 -16 -60 -13 -5 -14 -9 -4 -21
17 -21 26 -19 96 14 210 99 296 343 197 559 -9 17 -18 32 -22 32 -4 0 -7 -94
-7 -210 0 -248 -1 -250 -92 -250 -43 0 -59 4 -72 20 -11 13 -21 17 -25 10 -8
-14 -45 -13 -45 1 0 8 -4 8 -12 2 -7 -5 -41 -10 -76 -11 -48 -1 -61 1 -56 11
4 6 -2 4 -13 -5 -24 -22 -51 -25 -34 -4 9 11 6 15 -19 18 -17 3 -30 0 -30 -6
0 -12 -51 -39 -59 -31 -2 3 3 11 13 18 14 10 18 30 20 97 1 47 6 93 10 103 6
12 4 17 -7 17 -39 0 -26 94 18 129 24 18 26 32 9 83 -4 14 -2 18 5 14 6 -4 11
0 11 9 0 12 5 15 16 11 9 -3 20 -6 26 -6 6 0 7 -7 4 -16 -3 -8 -1 -24 5 -35 7
-15 7 -24 -2 -35 -9 -11 -8 -14 5 -14 9 0 16 4 16 8 0 5 11 14 24 22 13 7 27
21 29 32 6 21 27 16 27 -7 0 -7 -11 -27 -25 -43 -15 -18 -25 -42 -25 -61 0
-19 -7 -35 -19 -43 -14 -9 -17 -17 -11 -33 5 -12 10 -59 12 -103 3 -83 5 -86
44 -76 19 5 21 9 12 42 -5 21 -9 44 -9 52 1 119 3 130 19 139 13 8 14 12 3 25
-16 19 1 46 28 46 20 0 55 -66 41 -75 -13 -8 -13 -62 0 -70 6 -4 9 4 7 17 -1
15 3 23 13 23 8 0 14 -8 14 -17 -2 -24 12 -23 19 1 3 12 -1 22 -9 25 -12 5
-12 10 2 31 15 24 15 27 0 44 -22 24 -20 48 4 63 11 7 20 20 20 28 0 46 64 70
97 37 9 -9 17 -35 19 -59 2 -24 7 -83 12 -133 l9 -90 1 135 c0 74 3 142 7 151
4 11 -10 31 -46 63 -28 25 -55 46 -60 46 -5 0 -9 -18 -9 -40 0 -22 -4 -40 -10
-40 -5 0 -10 7 -10 15 0 25 -31 65 -49 65 -15 0 -59 -58 -52 -70 1 -2 -2 -6
-7 -8 -5 -1 -15 11 -22 28 -19 46 -49 80 -70 80 -10 0 -27 -11 -38 -25z m48
-25 c0 -5 8 -10 18 -10 12 0 17 -9 18 -30 1 -19 -4 -30 -12 -30 -7 0 -18 -8
-24 -17 -8 -13 -13 -14 -16 -5 -3 6 -13 12 -23 12 -13 0 -17 9 -17 35 0 27 4
35 18 35 10 0 18 5 18 10 0 6 5 10 10 10 6 0 10 -4 10 -10z m-270 -112 c0 -9
4 -8 11 2 8 11 12 12 16 3 2 -7 12 -13 21 -13 13 0 12 -4 -5 -22 -24 -26 -32
-52 -18 -56 6 -1 11 6 13 18 5 30 16 24 30 -14 10 -28 10 -39 0 -57 -10 -17
-10 -23 0 -26 19 -7 14 -23 -7 -23 -19 0 -20 -6 -14 -103 6 -101 5 -104 -18
-121 l-24 -17 24 -20 23 -19 -38 0 c-53 0 -84 10 -84 26 0 7 -11 24 -25 38
-20 20 -24 32 -19 52 4 14 2 29 -3 33 -6 3 -8 41 -5 93 4 80 7 90 33 115 16
15 29 31 29 35 0 4 11 19 24 33 14 15 22 33 19 41 -3 8 0 14 6 14 6 0 11 -6
11 -12z m140 -543 c0 -63 0 -64 -23 -56 -53 21 -147 89 -147 108 0 10 22 13
85 13 l85 0 0 -65z m420 56 c0 -26 -158 -129 -174 -114 -8 8 -8 108 1 116 10
10 173 8 173 -2z"/>
<path d="M810 1899 c0 -5 5 -7 10 -4 6 3 10 8 10 11 0 2 -4 4 -10 4 -5 0 -10
-5 -10 -11z"/>
<path d="M525 1794 c-11 -17 -12 -25 -4 -22 6 2 16 14 20 26 11 29 5 28 -16
-4z"/>
<path d="M490 1689 c0 -5 -5 -7 -11 -3 -7 4 -10 1 -7 -6 7 -23 28 -23 28 -1 0
12 -2 21 -5 21 -3 0 -5 -5 -5 -11z"/>
<path d="M456 1583 c-15 -21 -16 -27 -5 -34 20 -13 34 -6 37 20 5 35 -11 42
-32 14z m24 -13 c0 -5 -5 -10 -11 -10 -5 0 -7 5 -4 10 3 6 8 10 11 10 2 0 4
-4 4 -10z"/>
<path d="M557 1603 c-3 -5 -1 -17 4 -28 7 -17 8 -17 8 8 1 27 -4 34 -12 20z"/>
<path d="M570 1534 c0 -8 5 -12 10 -9 6 4 8 11 5 16 -9 14 -15 11 -15 -7z"/>
<path d="M477 1524 c-3 -3 -3 -12 0 -20 3 -9 -2 -14 -13 -14 -16 0 -17 -2 -4
-10 11 -7 18 -3 27 13 7 12 12 25 13 30 0 8 -14 9 -23 1z"/>
<path d="M516 1474 c-4 -14 -5 -29 -2 -31 3 -3 8 7 12 21 3 15 4 29 1 32 -2 3
-8 -7 -11 -22z"/>
<path d="M575 1483 c4 -14 2 -23 -4 -23 -6 0 -11 -5 -11 -12 0 -8 6 -7 16 4
13 13 14 20 5 34 -11 17 -11 17 -6 -3z"/>
<path d="M510 1421 c0 -6 5 -13 10 -16 6 -3 10 1 10 9 0 9 -4 16 -10 16 -5 0
-10 -4 -10 -9z"/>
<path d="M618 1343 c7 -3 16 -2 19 1 4 3 -2 6 -13 5 -11 0 -14 -3 -6 -6z"/>
<path d="M587 1329 c7 -7 15 -10 18 -7 3 3 -2 9 -12 12 -14 6 -15 5 -6 -5z"/>
<path d="M665 1321 c-3 -5 -1 -12 5 -16 5 -3 10 1 10 9 0 18 -6 21 -15 7z"/>
<path d="M610 1296 c0 -2 7 -7 16 -10 8 -3 12 -2 9 4 -6 10 -25 14 -25 6z"/>
<path d="M998 1343 c7 -3 16 -2 19 1 4 3 -2 6 -13 5 -11 0 -14 -3 -6 -6z"/>
<path d="M1025 1330 c-16 -7 -17 -9 -3 -9 9 -1 20 4 23 9 7 11 7 11 -20 0z"/>
<path d="M995 1290 c-3 -6 1 -7 9 -4 18 7 21 14 7 14 -6 0 -13 -4 -16 -10z"/>
<path d="M485 1980 c10 -11 20 -20 23 -20 3 0 -3 9 -13 20 -10 11 -20 20 -23
20 -3 0 3 -9 13 -20z"/>
<path d="M1116 1980 c6 -23 6 -24 -12 -10 -18 14 -18 14 -5 -3 19 -24 38 -6
22 20 -10 16 -11 15 -5 -7z"/>
<path d="M475 1950 c10 -11 20 -20 23 -20 3 0 -3 9 -13 20 -10 11 -20 20 -23
20 -3 0 3 -9 13 -20z"/>
<path d="M457 1929 c7 -7 15 -10 18 -7 3 3 -2 9 -12 12 -14 6 -15 5 -6 -5z"/>
<path d="M1176 1915 c-11 -8 -17 -17 -14 -20 2 -3 13 4 23 15 21 23 18 25 -9
5z"/>
<path d="M437 1909 c7 -7 15 -10 18 -7 3 3 -2 9 -12 12 -14 6 -15 5 -6 -5z"/>
<path d="M1196 1895 c-11 -8 -17 -17 -14 -20 2 -3 13 4 23 15 21 23 18 25 -9
5z"/>
<path d="M400 1875 c0 -7 30 -13 34 -7 3 4 -4 9 -15 9 -10 1 -19 0 -19 -2z"/>
<path d="M1205 1865 c-19 -16 -19 -16 2 -6 29 15 36 14 29 -4 -3 -8 -1 -15 5
-15 13 0 8 32 -6 37 -6 2 -20 -4 -30 -12z"/>
<path d="M390 1850 c8 -5 20 -10 25 -10 6 0 3 5 -5 10 -8 5 -19 10 -25 10 -5
0 -3 -5 5 -10z"/>
<path d="M1234 1814 c-18 -14 -18 -14 6 -3 31 14 36 19 24 19 -6 0 -19 -7 -30
-16z"/>
<path d="M4010 1823 c-26 -9 -40 -36 -40 -75 0 -31 -4 -38 -20 -38 -11 0 -20
-7 -20 -15 0 -8 9 -15 20 -15 19 0 20 -7 20 -100 l0 -100 25 0 25 0 0 100 c0
93 1 100 20 100 11 0 20 7 20 15 0 8 -9 15 -21 15 -17 0 -20 5 -17 38 2 30 7
38 26 40 25 4 30 27 6 36 -18 7 -23 7 -44 -1z"/>
<path d="M350 1810 c0 -5 5 -10 11 -10 5 0 7 5 4 10 -3 6 -8 10 -11 10 -2 0
-4 -4 -4 -10z"/>
<path d="M4730 1650 c0 -162 1 -170 20 -170 18 0 19 9 22 170 l3 170 -22 0
c-23 0 -23 0 -23 -170z"/>
<path d="M2200 1790 c0 -15 7 -20 25 -20 18 0 25 5 25 20 0 15 -7 20 -25 20
-18 0 -25 -5 -25 -20z"/>
<path d="M3110 1790 c0 -15 7 -20 25 -20 18 0 25 5 25 20 0 15 -7 20 -25 20
-18 0 -25 -5 -25 -20z"/>
<path d="M1690 1669 l0 -131 29 -29 c23 -23 38 -29 71 -29 33 0 48 6 71 29
l29 29 0 131 0 131 -25 0 -25 0 0 -128 c0 -138 -5 -152 -50 -152 -45 0 -50 14
-50 152 l0 128 -25 0 -25 0 0 -131z"/>
<path d="M4284 1781 c-88 -54 -82 -241 9 -284 59 -29 139 -21 130 12 -4 15
-12 18 -46 14 -36 -4 -46 -1 -69 22 -32 32 -43 88 -28 144 14 53 47 75 99 68
32 -4 40 -2 44 13 3 11 -2 21 -10 24 -31 12 -99 5 -129 -13z"/>
<path d="M330 1771 c0 -6 4 -13 10 -16 6 -3 7 1 4 9 -7 18 -14 21 -14 7z"/>
<path d="M3263 1769 c-16 -6 -23 -17 -23 -34 0 -18 -5 -25 -20 -25 -11 0 -20
-7 -20 -15 0 -8 9 -15 20 -15 18 0 20 -7 20 -83 0 -70 3 -87 19 -101 25 -22
73 -18 77 7 1 12 -2 17 -11 14 -24 -10 -35 17 -35 90 0 70 1 73 23 73 14 0 24
6 24 15 0 9 -10 15 -23 15 -19 0 -23 6 -26 34 -3 30 -5 33 -25 25z"/>
<path d="M1039 1748 c-2 -21 3 -52 9 -65 4 -6 7 8 8 33 0 24 -3 44 -8 44 -4 0
-9 -6 -9 -12z"/>
<path d="M1245 1739 c-11 -16 -1 -19 13 -3 7 8 8 14 3 14 -5 0 -13 -5 -16 -11z"/>
<path d="M348 1723 c7 -3 16 -2 19 1 4 3 -2 6 -13 5 -11 0 -14 -3 -6 -6z"/>
<path d="M2043 1710 c-13 -5 -23 -14 -23 -20 0 -5 -4 -10 -10 -10 -5 0 -10 7
-10 15 0 8 -9 15 -20 15 -19 0 -20 -7 -20 -115 l0 -115 25 0 c25 0 25 1 25 88
0 91 8 112 42 112 28 0 38 -33 38 -120 0 -79 1 -81 23 -78 21 3 22 7 22 101 0
92 -2 100 -24 118 -26 21 -35 22 -68 9z"/>
<path d="M2583 1710 c-52 -21 -72 -143 -33 -193 33 -41 140 -50 140 -11 0 12
-7 14 -34 8 -29 -5 -39 -2 -60 20 -45 44 -36 56 45 56 l71 0 -7 37 c-9 52 -22
72 -51 83 -30 12 -42 12 -71 0z m61 -36 c9 -8 16 -24 16 -35 0 -16 -7 -19 -46
-19 -42 0 -45 1 -39 23 7 21 31 47 46 47 4 0 15 -7 23 -16z"/>
<path d="M2837 1700 c-30 -24 -37 -25 -37 -5 0 8 -9 15 -20 15 -19 0 -20 -7
-20 -115 l0 -115 25 0 c25 0 25 1 25 79 0 85 12 111 51 111 14 0 19 7 19 25 0
30 -9 31 -43 5z"/>
<path d="M2950 1709 c-30 -12 -40 -26 -40 -61 0 -21 10 -34 45 -58 67 -46 56
-89 -17 -69 -23 6 -28 4 -28 -11 0 -42 104 -39 132 4 16 24 7 55 -24 81 -18
14 -41 33 -50 40 -28 23 -11 45 33 45 44 0 55 23 17 34 -29 7 -38 7 -68 -5z"/>
<path d="M3760 1707 c-29 -15 -60 -70 -60 -110 0 -77 49 -124 119 -113 48 7
72 35 78 89 8 66 -12 116 -53 133 -41 17 -52 17 -84 1z m80 -53 c27 -70 -2
-154 -49 -139 -40 12 -56 100 -25 143 21 31 62 29 74 -4z"/>
<path d="M4524 1706 c-80 -36 -68 -203 15 -221 82 -18 126 23 126 117 0 48 -4
62 -25 83 -31 31 -76 39 -116 21z m84 -59 c21 -44 8 -115 -25 -130 -22 -10
-28 -8 -44 12 -21 26 -26 100 -8 132 16 30 60 22 77 -14z"/>
<path d="M4890 1707 c-38 -19 -63 -79 -56 -132 10 -62 32 -86 87 -92 62 -7 99
23 106 89 8 67 -12 117 -53 134 -41 17 -52 17 -84 1z m80 -46 c30 -58 -2 -161
-47 -147 -41 13 -56 112 -22 152 17 20 57 17 69 -5z"/>
<path d="M5115 1697 c-23 -19 -29 -34 -33 -80 -6 -71 11 -115 47 -124 33 -9
51 -5 74 14 16 15 17 14 17 -19 0 -51 -28 -72 -85 -65 -40 6 -45 4 -45 -13 0
-24 57 -37 109 -24 57 14 71 53 71 202 0 115 -1 122 -20 122 -11 0 -20 -7 -20
-15 0 -19 -10 -19 -24 -1 -21 28 -61 29 -91 3z m87 -34 c12 -11 18 -30 18 -60
0 -57 -14 -83 -45 -83 -30 0 -45 26 -45 80 0 73 31 100 72 63z"/>
<path d="M5413 1710 c-13 -5 -23 -14 -23 -20 0 -5 -4 -10 -10 -10 -5 0 -10 7
-10 15 0 8 -9 15 -20 15 -19 0 -20 -7 -20 -116 0 -114 0 -115 23 -112 21 3 22
9 25 88 3 88 12 110 43 110 27 0 39 -38 39 -126 0 -72 1 -75 23 -72 21 3 22 7
21 102 0 91 -2 100 -23 117 -26 21 -35 22 -68 9z"/>
<path d="M5609 1705 c-75 -41 -59 -202 21 -220 49 -11 100 2 100 25 0 17 -3
18 -31 8 -22 -8 -37 -7 -55 1 -24 11 -46 48 -37 64 2 4 33 7 69 7 58 0 64 2
64 20 0 38 -28 90 -55 100 -34 13 -44 12 -76 -5z m65 -31 c9 -8 16 -24 16 -35
0 -16 -7 -19 -45 -19 -44 0 -44 0 -34 27 16 44 38 53 63 27z"/>
<path d="M1286 1695 c4 -8 8 -15 10 -15 2 0 4 7 4 15 0 8 -4 15 -10 15 -5 0
-7 -7 -4 -15z"/>
<path d="M2200 1595 l0 -115 25 0 25 0 0 115 0 115 -25 0 -25 0 0 -115z"/>
<path d="M2300 1704 c0 -3 14 -55 32 -115 l31 -110 31 3 c30 3 32 6 63 113 18
61 33 111 33 113 0 1 -10 2 -23 2 -21 0 -25 -8 -41 -77 -27 -114 -30 -115 -55
-26 -11 44 -21 85 -21 91 0 7 -11 12 -25 12 -14 0 -25 -3 -25 -6z"/>
<path d="M3110 1594 c0 -114 0 -115 23 -112 21 3 22 7 25 116 l3 112 -26 0
-25 0 0 -116z"/>
<path d="M3362 1698 c37 -99 69 -213 66 -235 -2 -17 -11 -32 -25 -38 -32 -14
-30 -45 2 -45 38 0 55 28 96 160 55 178 53 170 26 170 -21 0 -25 -8 -42 -85
-11 -47 -22 -85 -26 -85 -3 0 -16 38 -28 85 -21 78 -25 85 -48 85 -16 0 -23
-5 -21 -12z"/>
<path d="M1278 1663 c6 -2 18 -2 25 0 6 3 1 5 -13 5 -14 0 -19 -2 -12 -5z"/>
<path d="M313 1650 c5 -18 35 -26 50 -11 7 7 3 8 -13 4 -13 -4 -26 0 -32 8 -8
12 -9 11 -5 -1z"/>
<path d="M1020 1630 c0 -5 5 -10 11 -10 5 0 7 5 4 10 -3 6 -8 10 -11 10 -2 0
-4 -4 -4 -10z"/>
<path d="M1273 1633 c9 -2 23 -2 30 0 6 3 -1 5 -18 5 -16 0 -22 -2 -12 -5z"/>
<path d="M1298 1603 c7 -3 16 -2 19 1 4 3 -2 6 -13 5 -11 0 -14 -3 -6 -6z"/>
<path d="M955 1584 c-12 -13 -19 -14 -30 -4 -24 20 -19 -16 6 -41 17 -17 19
-28 14 -61 -5 -29 -4 -39 4 -34 6 4 11 24 11 44 0 20 4 54 9 75 10 42 9 43
-14 21z"/>
<path d="M340 1550 c0 -5 7 -7 15 -4 8 4 15 8 15 10 0 2 -7 4 -15 4 -8 0 -15
-4 -15 -10z"/>
<path d="M1275 1550 l-30 -8 27 -1 c15 0 30 4 33 9 3 6 5 9 3 9 -2 -1 -16 -5
-33 -9z"/>
<path d="M1258 1513 c12 -2 22 -9 22 -14 0 -6 5 -7 10 -4 17 11 0 25 -28 24
-24 -2 -24 -2 -4 -6z"/>
<path d="M1236 1482 c-3 -4 4 -9 15 -9 23 -2 25 3 4 10 -8 4 -16 3 -19 -1z"/>
<path d="M345 1460 c-3 -5 -1 -10 4 -10 6 0 11 5 11 10 0 6 -2 10 -4 10 -3 0
-8 -4 -11 -10z"/>
<path d="M378 1439 c-10 -5 -18 -15 -18 -22 0 -8 3 -9 8 -1 4 6 16 16 27 22
11 6 16 11 10 11 -5 0 -18 -4 -27 -10z"/>
<path d="M1217 1443 c-13 -12 -7 -23 11 -22 10 0 12 3 4 6 -6 2 -10 9 -6 14 6
10 0 12 -9 2z"/>
<path d="M416 1355 c-11 -8 -16 -15 -10 -15 5 0 18 7 28 15 11 8 16 15 10 15
-5 0 -18 -7 -28 -15z"/>
<path d="M1190 1338 c25 -24 38 -29 25 -9 -3 6 -16 16 -28 22 -20 11 -20 9 3
-13z"/>
<path d="M429 1333 c-13 -16 -12 -17 4 -4 9 7 17 15 17 17 0 8 -8 3 -21 -13z"/>
<path d="M1160 1320 c11 -11 23 -20 27 -20 3 0 -2 9 -12 20 -10 11 -22 20 -27
20 -4 0 1 -9 12 -20z"/>
<path d="M449 1313 c-13 -16 -12 -17 4 -4 9 7 17 15 17 17 0 8 -8 3 -21 -13z"/>
<path d="M464 1288 l-19 -23 23 19 c21 18 27 26 19 26 -2 0 -12 -10 -23 -22z"/>
<path d="M1135 1290 c10 -11 20 -20 23 -20 3 0 -3 9 -13 20 -10 11 -20 20 -23
20 -3 0 3 -9 13 -20z"/>
<path d="M498 1268 c-10 -10 -14 -18 -9 -18 10 0 36 29 30 34 -2 1 -12 -6 -21
-16z"/>
<path d="M1114 1271 c20 -22 26 -25 26 -13 0 4 -10 13 -22 21 -23 14 -23 14
-4 -8z"/>
<path d="M1071 1267 c2 -1 13 -9 24 -17 19 -14 19 -14 6 3 -7 9 -18 17 -24 17
-6 0 -8 -1 -6 -3z"/>
<path d="M750 1245 c0 -8 5 -15 10 -15 6 0 10 7 10 15 0 8 -4 15 -10 15 -5 0
-10 -7 -10 -15z"/>
<path d="M800 1245 c0 -8 5 -15 10 -15 6 0 10 7 10 15 0 8 -4 15 -10 15 -5 0
-10 -7 -10 -15z"/>
<path d="M851 1244 c0 -11 3 -14 6 -6 3 7 2 16 -1 19 -3 4 -6 -2 -5 -13z"/>
<path d="M1050 1220 c6 -11 13 -20 16 -20 2 0 0 9 -6 20 -6 11 -13 20 -16 20
-2 0 0 -9 6 -20z"/>
<path d="M730 1214 c0 -8 5 -12 10 -9 6 4 8 11 5 16 -9 14 -15 11 -15 -7z"/>
<path d="M776 1221 c-4 -5 -2 -12 3 -15 5 -4 12 -2 15 3 4 5 2 12 -3 15 -5 4
-12 2 -15 -3z"/>
<path d="M825 1221 c-3 -5 -1 -12 5 -16 5 -3 10 1 10 9 0 18 -6 21 -15 7z"/>
<path d="M1010 1221 c0 -6 4 -13 10 -16 6 -3 7 1 4 9 -7 18 -14 21 -14 7z"/>
<path d="M870 1210 c0 -5 5 -10 10 -10 6 0 10 5 10 10 0 6 -4 10 -10 10 -5 0
-10 -4 -10 -10z"/>
<path d="M571 1194 c0 -11 3 -14 6 -6 3 7 2 16 -1 19 -3 4 -6 -2 -5 -13z"/>
<path d="M800 1186 c0 -9 5 -16 10 -16 6 0 10 4 10 9 0 6 -4 13 -10 16 -5 3
-10 -1 -10 -9z"/>
<path d="M846 1191 c-4 -5 -2 -12 3 -15 5 -4 12 -2 15 3 4 5 2 12 -3 15 -5 4
-12 2 -15 -3z"/>
<path d="M895 1191 c-3 -5 -1 -12 5 -16 5 -3 10 1 10 9 0 18 -6 21 -15 7z"/>
<path d="M755 1180 c3 -5 8 -10 11 -10 2 0 4 5 4 10 0 6 -5 10 -11 10 -5 0 -7
-4 -4 -10z"/>
<path d="M648 1158 c-14 -14 -15 -18 -4 -18 8 0 17 7 20 16 9 23 4 24 -16 2z"/>
<path d="M730 1161 c0 -5 5 -13 10 -16 6 -3 10 -2 10 4 0 5 -4 13 -10 16 -5 3
-10 2 -10 -4z"/>
<path d="M776 1161 c-4 -5 -2 -12 3 -15 5 -4 12 -2 15 3 4 5 2 12 -3 15 -5 4
-12 2 -15 -3z"/>
<path d="M825 1161 c-3 -5 -1 -12 5 -16 5 -3 10 1 10 9 0 18 -6 21 -15 7z"/>
<path d="M870 1160 c0 -13 18 -22 24 -11 3 5 -1 11 -9 15 -8 3 -15 1 -15 -4z"/>
<path d="M755 1130 c-3 -5 -1 -10 4 -10 6 0 11 5 11 10 0 6 -2 10 -4 10 -3 0
-8 -4 -11 -10z"/>
<path d="M800 1124 c0 -8 5 -12 10 -9 6 4 8 11 5 16 -9 14 -15 11 -15 -7z"/>
<path d="M846 1131 c-4 -5 -2 -12 3 -15 5 -4 12 -2 15 3 4 5 2 12 -3 15 -5 4
-12 2 -15 -3z"/>
</g>
</svg>
